<svg xmlns="http://www.w3.org/2000/svg" xmlns:xlink="http://www.w3.org/1999/xlink" width="600" height="600">
  <defs>
    <path id="a" d="M19 1L7.172 13 0 5.724"/>
    <radialGradient id="b" cx="49.979%" cy="50.01%" r="63.711%" fx="49.979%" fy="50.01%" gradientTransform="matrix(.66738 0 0 1 .166 0)">
      <stop offset="70.33%" stop-color="#FFF"/>
      <stop offset="88.76%" stop-color="#FBFBFB"/>
      <stop offset="100%" stop-color="#F5F5F5"/>
    </radialGradient>
    <linearGradient id="c" x1="50.005%" x2="50.005%" y1="-52.443%" y2="99.978%">
      <stop offset="57.69%" stop-color="#FFF"/>
      <stop offset="67.8%" stop-color="#FBFBFB"/>
      <stop offset="78.43%" stop-color="#EEE"/>
      <stop offset="89.25%" stop-color="#D9D9D9"/>
      <stop offset="100%" stop-color="#BDBDBD"/>
    </linearGradient>
    <linearGradient id="d" x1="50.005%" x2="50.005%" y1="152.449%" y2=".029%">
      <stop offset="25.27%" stop-color="#DBDBDB"/>
      <stop offset="29.16%" stop-color="#DFDFDF"/>
      <stop offset="61.54%" stop-color="#FFF"/>
      <stop offset="81.34%" stop-color="#FDFDFD"/>
      <stop offset="88.47%" stop-color="#F6F6F6"/>
      <stop offset="93.56%" stop-color="#EBEBEB"/>
      <stop offset="97.64%" stop-color="#DADADA"/>
      <stop offset="100%" stop-color="#CCC"/>
    </linearGradient>
  </defs>
  <g fill="none" fill-rule="evenodd">
    <g stroke="#CCC">
      <path d="M0 200h100v100H0zM100 200h100v100H100z"/>
      <path stroke-width="1.414" d="M200 200h200v100H200z"/>
      <path stroke-width="1.414" d="M399.5 200h200v100h-200zM200 0h200v100H200zM400 0h200v100H400z"/>
      <path d="M0 500h100v100H0zM100 500h100v100H100zM200 500h100v100H200zM0 400h100v100H0zM100 400h100v100H100zM200 400h100v100H200zM0 100h100v100H0zM100 100h100v100H100zM0 300h100v100H0zM100 300h100v100H100z"/>
      <path stroke-width="1.414" d="M200 100h200v100H200z"/>
      <path stroke-width="1.414" d="M399.5 100h200v100h-200z"/>
      <path d="M200 300h100v100H200zM300 300h100v100H300z"/>
      <path stroke-width="1.414" d="M400 300h200v100H400z"/>
      <path d="M300 400h100v100H300zM400 400h100v100H400zM500 400h100v100H500z"/>
    </g>
    <path fill="#F6D023" d="M158.85 556.39l2.76-9.51c.14.03.28.05.43.05a1.72 1.72 0 1 0-1.69-1.41l-6.56 3.09-3.09-6.98a1.72 1.72 0 1 0-1.4 0l-3.09 6.98-6.56-3.09a1.72 1.72 0 1 0-1.69 1.41c.15 0 .29-.02.43-.05l2.76 9.51h17.7zm-.28 1.72l-.13 3.56-8.44-.1-8.44.1-.13-3.56h17.14z"/>
    <path fill="#5AA1AC" d="M60.55 551.544c0 .205-.165.452-.39.493l-2.546.39c-.143.43-.307.862-.533 1.252.472.677.964 1.272 1.477 1.888a.582.582 0 0 1 .144.349.418.418 0 0 1-.123.308c-.328.43-2.176 2.462-2.648 2.462-.123 0-.246-.061-.348-.123l-1.889-1.477c-.39.205-.82.39-1.252.513-.102.841-.184 1.744-.39 2.565a.506.506 0 0 1-.492.39h-3.058c-.247 0-.472-.185-.493-.41l-.39-2.525a8.182 8.182 0 0 1-1.231-.513l-1.95 1.478a.557.557 0 0 1-.349.123.582.582 0 0 1-.349-.144c-.718-.657-1.683-1.519-2.257-2.298a.61.61 0 0 1-.103-.308c0-.123.041-.226.103-.308.472-.636.985-1.232 1.436-1.888a6.967 6.967 0 0 1-.554-1.355l-2.524-.37c-.226-.04-.39-.266-.39-.492v-3.058c0-.205.164-.452.37-.493l2.565-.39c.143-.43.307-.862.533-1.272a43.15 43.15 0 0 0-1.477-1.909c-.083-.102-.144-.205-.144-.328a.52.52 0 0 1 .123-.308c.328-.452 2.196-2.463 2.648-2.463.123 0 .246.062.348.144l1.889 1.477c.39-.205.82-.39 1.252-.513.102-.841.184-1.724.39-2.565a.506.506 0 0 1 .492-.39h3.058c.247 0 .472.185.493.41l.39 2.525c.43.144.841.308 1.231.513l1.95-1.478a.466.466 0 0 1 .328-.123c.124 0 .247.062.35.144.718.677 1.682 1.519 2.257 2.34a.504.504 0 0 1 .103.307.504.504 0 0 1-.103.308c-.472.636-.985 1.232-1.437 1.888.226.431.431.903.554 1.355l2.525.39c.226.041.39.267.39.493v2.996h.02zM50 546.454c-1.93 0-3.53 1.58-3.53 3.51 0 1.95 1.58 3.51 3.53 3.51a3.53 3.53 0 0 0 3.53-3.53c0-1.91-1.6-3.49-3.53-3.49z"/>
    <path fill="#D8E7EB" d="M550.65 440.11c-5.15 0-9.33 4.18-9.33 9.33s4.18 9.33 9.33 9.33 9.33-4.18 9.33-9.33-4.18-9.33-9.33-9.33zm0 2.32a2.39 2.39 0 1 1 0 4.78 2.39 2.39 0 0 1 0-4.78zm3.35 13.38H547.28v-1.36h1.36v-4.44h-1.36v-1.36h5.35v5.8H554v1.36z"/>
    <path fill="#231F20" d="M463.88 454.94c0 1.42-.5 2.64-1.51 3.64-1.01 1.01-2.22 1.51-3.64 1.51h-14.59c-1.66 0-3.07-.59-4.25-1.76-1.18-1.18-1.76-2.59-1.76-4.25 0-1.16.31-2.24.94-3.22.63-.98 1.47-1.72 2.52-2.21a8.85 8.85 0 0 1-.03-.58c0-1.9.67-3.51 2.01-4.86 1.34-1.34 2.96-2.01 4.86-2.01 1.39 0 2.67.39 3.83 1.17 1.16.78 2 1.81 2.53 3.1.63-.55 1.38-.83 2.23-.83.95 0 1.76.33 2.43 1.01.67.67 1.01 1.48 1.01 2.43 0 .68-.18 1.3-.55 1.85 1.16.28 2.12.88 2.86 1.82.73.92 1.11 1.99 1.11 3.19zm-8.59-3.01a.43.43 0 0 0-.12-.31.414.414 0 0 0-.31-.12h-3v-4.72a.38.38 0 0 0-.13-.3.453.453 0 0 0-.3-.13h-2.58a.38.38 0 0 0-.3.13c-.08.09-.13.19-.13.3v4.72h-3.01a.38.38 0 0 0-.3.13.434.434 0 0 0-.01.61l4.72 4.72c.08.08.18.12.31.12.12 0 .23-.04.31-.12l4.71-4.71c.09-.1.14-.21.14-.32z" opacity=".2"/>
    <path fill="#FFF" d="M462.88 453.25c0 1.42-.5 2.64-1.51 3.64-1.01 1.01-2.22 1.51-3.64 1.51h-14.59c-1.65 0-3.07-.59-4.25-1.76-1.18-1.18-1.76-2.59-1.76-4.25 0-1.16.31-2.24.94-3.22.63-.98 1.47-1.72 2.52-2.21a8.85 8.85 0 0 1-.03-.58c0-1.9.67-3.51 2.01-4.86 1.34-1.34 2.96-2.01 4.86-2.01 1.4 0 2.67.39 3.83 1.17 1.16.78 2 1.81 2.53 3.1.64-.55 1.38-.83 2.23-.83.95 0 1.76.34 2.43 1.01.67.67 1 1.48 1 2.43 0 .68-.18 1.3-.55 1.85 1.16.28 2.12.88 2.86 1.82a4.93 4.93 0 0 1 1.12 3.19zm-8.59-3a.43.43 0 0 0-.12-.31.414.414 0 0 0-.31-.12h-3v-4.72a.38.38 0 0 0-.13-.3.41.41 0 0 0-.3-.13h-2.58a.38.38 0 0 0-.3.13c-.09.08-.13.19-.13.3v4.72h-3a.38.38 0 0 0-.3.13.434.434 0 0 0-.01.61l4.72 4.72c.08.08.18.12.31.12s.23-.04.31-.12l4.71-4.71a.51.51 0 0 0 .13-.32z"/>
    <path fill="#000" d="M356.86 455.715v2.305l-6.57 3.91-6.58-3.91v-2.287l-4.61-3.003 4.53-3.63 6.63 4.09-.064.053.089-.021h.002l-.027-.022 6.63-4.1 4.53 3.64-4.56 2.975zM345.67 441.2l4.59 3.82-6.63 4.08-4.53-3.62 6.57-4.28zm9.19 0l6.56 4.28-4.53 3.62-6.63-4.08 4.6-3.82z" opacity=".202"/>
    <path fill="#FFF" d="M345.41 439.63l4.59 3.82-6.63 4.08-4.53-3.62 6.57-4.28zm-2.04 7.9l6.63 4.09-4.59 3.82-6.57-4.28 4.53-3.63zm13.23 7.45v1.45l-6.57 3.93v.01l-.01-.01-.01.01v-.01l-6.56-3.93v-1.45l1.97 1.29 4.59-3.81v-.03l.01.01.01-.01v.03l4.6 3.81 1.97-1.29zm-2-15.35l6.56 4.28-4.53 3.62-6.63-4.08 4.6-3.82zm2.03 7.9l4.53 3.64-6.56 4.28-4.6-3.82 6.63-4.1z"/>
    <path fill="#D8E7EB" d="M285.33 493.53c-2.28 0-4.14-1.86-4.14-4.14 0-2.28 1.86-4.14 4.14-4.14 2.28 0 4.14 1.86 4.14 4.14 0 2.28-1.86 4.14-4.14 4.14zm0-7.89c-2.07 0-3.75 1.68-3.75 3.75 0 2.07 1.68 3.75 3.75 3.75 2.07 0 3.75-1.68 3.75-3.75 0-2.07-1.68-3.75-3.75-3.75zm1.53 6.18l-1.02-2.15h-1.44v2.12h-.39v-4.6h1.96c.51 0 1.08.51 1.08 1.24 0 .55-.35 1.04-.8 1.19l.96 2.04-.35.16zm-2.46-2.55v-1.7h1.57c.32 0 .69.36.69.85 0 .47-.37.84-.69.84l-1.57.01zm1.13-19.6c-2.07 4.59-3.06 6.64-5.73 10.7-3.72 5.67-8.97 12.72-15.47 12.78-5.78.05-7.26-3.76-15.1-3.71-7.84.04-9.48 3.78-15.25 3.73-6.5-.06-11.47-6.43-15.2-12.09-10.41-15.84-11.5-34.43-5.08-44.31 4.56-7.02 11.76-11.13 18.52-11.13 6.89 0 11.22 3.78 16.92 3.78 5.53 0 8.89-3.78 16.86-3.78 6.02 0 12.4 3.28 16.95 8.95-14.89 8.13-12.47 29.39 2.58 35.08zm-25.57-50.38c-3.09 3.98-8.43 7.06-13.6 6.9-.94-5.13 1.48-10.41 4.41-13.97 3.23-3.92 8.76-6.92 13.49-7.25.79 5.36-1.4 10.6-4.3 14.32zM110.94 421.84l32.5-4.43.01 31.35-32.49.18-.02-27.1zm32.48 30.54l.03 31.38-32.49-4.47v-27.12l32.46.21zm3.95-35.55l43.1-6.29v37.82l-43.1.34v-31.87zm43.1 35.84l-.01 37.65-43.1-6.08-.06-31.64 43.17.07z"/>
    <path fill="#131313" d="M85.66 421.62h-3.47l3.6 3.91v1.86h-7.42v-2.18h3.6l-3.6-3.91v-1.86h7.29v2.18zm-8.76 0h-3.47l3.6 3.91v1.86h-7.42v-2.18h3.6l-3.6-3.91v-1.86h7.28l.01 2.18zm-8.67.08h-3.74v3.41h3.74v2.27h-6.4v-7.96h6.4v2.28z"/>
    <path fill="#1572B6" d="M56.73 473.65l-3.8-42.63h41.76l-3.8 42.62-17.1 4.74z"/>
    <path fill="#33A9DC" d="M73.81 474.76l13.82-3.83 3.25-36.42H73.81z"/>
    <path fill="#FFF" d="M73.81 449.95h6.92l.48-5.35h-7.4v-5.23h13.11l-.12 1.4-1.29 14.41h-11.7z"/>
    <path fill="#EBEBEB" d="M73.85 463.53h-.03L68 461.96l-.37-4.17h-5.25l.73 8.21 10.71 2.97h.03z"/>
    <path fill="#FFF" d="M80.29 454.96l-.63 7-5.83 1.57v5.44L84.54 466l.08-.88.91-10.16z"/>
    <path fill="#EBEBEB" d="M73.83 439.37V444.6H61.2l-.1-1.18-.24-2.65-.12-1.4zM73.81 449.95V455.18h-5.75l-.1-1.18-.24-2.65-.12-1.4z"/>
    <path fill="#E44F26" d="M12.13 487.45l-5.68-63.64H68.8l-5.68 63.63-25.53 7.08z"/>
    <path fill="#F1662A" d="M37.62 489.11l20.64-5.72 4.85-54.38H37.62z"/>
    <path fill="#EBEBEB" d="M37.62 452.62H27.3l-.72-8h11.04v-7.8H18.05l.19 2.09 1.92 21.51h17.46zM37.62 472.89l-.03.01-8.69-2.35-.56-6.23h-7.83l1.09 12.26 15.99 4.44.03-.01z"/>
    <path fill="#010101" d="M12.25 406.52h3.97v3.92h3.63v-3.92h3.97v11.87h-3.97v-3.97h-3.63v3.97h-3.97v-11.87zM29.03 410.45h-3.49v-3.94h10.95v3.94H33v7.93h-3.97zM38.23 406.52h4.14l2.54 4.17 2.54-4.17h4.14v11.87h-3.95v-5.88l-2.73 4.22h-.07l-2.73-4.22v5.88h-3.88zM53.56 406.52h3.97v7.95h5.58v3.92h-9.55z"/>
    <path fill="#FFF" d="M37.6 452.62v7.8h9.61l-.91 10.12-8.7 2.35v8.12l16-4.43.12-1.32 1.83-20.55.19-2.09h-2.1zM37.6 436.82V444.62H56.45l.16-1.75.35-3.96.19-2.09zM455.33 346.32v2.88h-.85l1.2 4.72 1.21-4.72h-.83v-2.88h4.93v2.98h-.87l-2.59 7.75h-4.23l-2.55-7.75h-.87v-2.98h5.45zm8.77.43c.47-.25.94-.42 1.41-.52.47-.09.99-.14 1.56-.14 1.81 0 3.17.5 4.1 1.5.92.99 1.38 2.38 1.38 4.15 0 .4-.03.8-.08 1.2-.05.4-.18.88-.36 1.44-.19.56-.47 1.04-.86 1.45-.39.41-.81.72-1.27.92-.46.21-.93.35-1.42.44-.49.09-.98.13-1.46.13-.5 0-1-.04-1.49-.13-.5-.09-.95-.22-1.34-.39-.39-.17-.84-.51-1.34-1-.5-.5-.84-1.13-1.02-1.89-.19-.76-.28-1.53-.28-2.32 0-1.22.2-2.22.6-3 .38-.79 1.01-1.4 1.87-1.84zm2.96 2.22c-.36 0-.67.12-.93.35-.26.28-.43.62-.51 1.03-.08.41-.12.84-.12 1.32 0 .4.02.74.05 1.03.03.28.12.55.25.81s.29.46.48.61c.18.15.44.22.78.22.66 0 1.08-.27 1.27-.82.18-.54.27-1.18.27-1.89 0-.66-.09-1.27-.27-1.83-.18-.55-.61-.83-1.27-.83zm9.12-2.22c.47-.25.94-.42 1.41-.52.47-.09.99-.14 1.56-.14 1.81 0 3.18.5 4.1 1.5.92.99 1.38 2.38 1.38 4.15 0 .4-.02.8-.08 1.2-.05.4-.18.88-.36 1.44-.19.56-.47 1.04-.86 1.45-.39.41-.81.72-1.27.92-.46.21-.93.35-1.42.44-.49.09-.98.13-1.46.13-.5 0-.99-.04-1.49-.13s-.94-.22-1.34-.39c-.39-.17-.84-.51-1.34-1-.5-.5-.84-1.13-1.03-1.89-.19-.76-.28-1.53-.28-2.32 0-1.22.2-2.22.6-3 .4-.79 1.03-1.4 1.88-1.84zm2.97 2.22c-.36 0-.67.12-.93.35-.26.28-.43.62-.51 1.03-.08.41-.12.84-.12 1.32 0 .4.02.74.05 1.03.03.28.12.55.25.81s.29.46.48.61c.19.15.45.22.78.22.66 0 1.08-.27 1.26-.82.18-.54.27-1.18.27-1.89 0-.66-.09-1.27-.27-1.83-.18-.55-.6-.83-1.26-.83zm10.88-.79c.15-.54.4-1.01.75-1.4.35-.39.97-.59 1.87-.59.34 0 .68.04 1.01.13v3.44c-.28-.05-.48-.09-.61-.09-.13-.01-.23-.01-.32-.01-.39 0-.75.05-1.06.16-.31.11-.58.26-.8.48-.22.21-.36.47-.42.77-.06.3-.09.72-.09 1.28v1.74h1.22v2.99h-5.85v-2.99h.89v-4.76h-.89v-2.98h4.16l.14 1.83zm8.87-.47c.27-.44.64-.83 1.13-1.15.49-.32 1.12-.49 1.9-.49.39 0 .76.05 1.1.15.34.1.62.25.85.47.22.22.38.4.47.53.09.13.19.31.28.55.08-.22.16-.38.22-.47.07-.09.29-.32.66-.68.37-.36 1.07-.55 2.1-.55.48 0 .89.06 1.21.18.32.12.59.28.81.5.22.22.39.49.52.83.13.34.2.79.2 1.36v5.14h.89v2.99h-4.75v-6.55c0-.39-.04-.69-.13-.89-.08-.21-.3-.31-.65-.31-.14 0-.27.02-.37.05a.66.66 0 0 0-.31.21c-.1.11-.18.25-.24.43s-.09.44-.09.77v3.31h.73v2.99h-4.52v-6.34c0-.44-.05-.79-.15-1.04-.1-.25-.34-.38-.72-.38-.23 0-.44.09-.64.25-.11.13-.19.3-.23.53-.04.23-.06.48-.06.74v3.24h.71v2.99h-5.44v-2.99h.87v-4.76h-.87v-2.98h4.44l.08 1.37zm23.59 5.63c-.11.57-.25 1.06-.41 1.47-.16.42-.46.83-.9 1.25-.44.42-.98.72-1.62.92-.63.2-1.31.3-2.03.3-1.59 0-2.88-.44-3.87-1.31-.99-.87-1.49-2.29-1.49-4.25 0-.42.02-.78.05-1.1.03-.32.17-.87.4-1.65.23-.78.79-1.46 1.68-2.04.89-.58 1.91-.87 3.09-.87.81 0 1.54.12 2.18.36.64.24 1.2.59 1.66 1.06.46.46.81 1.08 1.05 1.87.23.78.35 1.8.35 3.06h-6.53c0 .66.08 1.2.24 1.63.16.43.54.65 1.13.65.49 0 .81-.13.98-.4.17-.27.29-.59.34-.95h3.7zm-3.69-2.96c0-.14 0-.27-.01-.4s-.05-.3-.13-.52a.98.98 0 0 0-.45-.52c-.23-.13-.47-.2-.72-.2-.41 0-.73.13-.95.39-.22.27-.33.68-.33 1.25h2.59zm15.65 3.69h.87v2.99h-4.39l-.13-1.27-.5.63c-.26.26-.59.47-.99.62-.39.16-.85.23-1.38.23-1.02 0-1.83-.28-2.43-.83a5.037 5.037 0 0 1-1.3-2.05c-.27-.81-.4-1.75-.4-2.82 0-1.67.36-3.01 1.09-4.01.73-1.01 1.73-1.51 3-1.51.69 0 1.23.12 1.61.38.38.25.74.59 1.07 1.01v-2.03h-.93v-2.99h4.81v11.65zm-6.41-4.33c-.21.55-.32 1.25-.32 2.08 0 .88.11 1.53.34 1.94.23.41.58.62 1.07.62.55 0 .95-.27 1.17-.8.23-.54.34-1.23.34-2.09 0-.7-.09-1.31-.27-1.82-.18-.51-.56-.76-1.14-.76-.58 0-.98.28-1.19.83zm12.96-3.42v7.75h.91v2.99h-5.66v-2.99h.89v-4.77h-.89v-2.98H541zm-4.19-3.92H541v2.78h-4.19v-2.78zm16.65 11.67v2.99h-4.48l-.08-1.25c-.28.4-.64.74-1.08 1.03-.44.29-1.07.44-1.89.44-.97 0-1.73-.28-2.29-.84-.56-.56-.84-1.35-.84-2.37 0-.5.09-.99.26-1.49s.54-.93 1.1-1.31 1.18-.62 1.85-.72c.68-.11 1.42-.16 2.22-.16h.56v-.97c-.03-.07-.05-.18-.08-.32a.734.734 0 0 0-.29-.42.896.896 0 0 0-.6-.21c-.3 0-.53.08-.68.25-.15.17-.25.37-.28.61-.03.24-.05.4-.05.47h-3.62c0-.33.02-.63.07-.89s.19-.64.44-1.15c.25-.51.77-.92 1.57-1.23.8-.32 1.63-.48 2.49-.48.78 0 1.51.11 2.22.33.7.22 1.25.53 1.65.93.39.4.65.81.77 1.22.12.42.18.87.18 1.37v4.17h.88zm-4.67-1.78h-.44c-.33 0-.63.04-.89.12-.26.08-.46.24-.59.47-.14.23-.21.5-.21.8 0 .36.08.63.25.82.17.19.4.29.69.29.24 0 .43-.05.58-.13.15-.09.27-.21.37-.36.1-.15.16-.3.2-.46.03-.16.05-.33.05-.53l-.01-1.02z"/>
    <path fill="#818181" d="M374.65 342.06c.21-1.11.4-2.14.63-3.34-1.13-.21-1.98-.48-2.84-.5-3.67-.07-7.35-.1-11.02-.05-1.26.01-2.38.51-3.05 1.67.36.79.69 1.5 1.01 2.2l.25-.31c1.26.88 2.51 1.75 3.86 2.69-.67.91-1.04 1.55-1.54 2.07-3.46 3.64-7.37 6.67-11.9 8.91-7.09 3.49-14.56 4.18-22.27 3.07-.78-.11-1.31-.09-1.65.66l.04.63c.77.13 1.53.28 2.3.38 5.8.75 11.57.7 17.13-1.3 5.72-2.06 10.74-5.31 15.13-9.53 1.07-1.03 2.21-2 3.35-3.02 2.42 1.2 2.29 4.61 4.95 5.71 2.95-2.67 4.24-6.39 6.67-9.43-.49-.24-.8-.39-1.05-.51zm-12.06-.35c-.03.02-.15-.11-.23-.17l.37-.31c.06.06.11.12.17.18-.1.11-.19.23-.31.3zm1.68 1.39c-.05-.09-.1-.18-.16-.28.54-.25 1.07-.49 1.61-.73-.49.33-.97.67-1.45 1.01zm1.49 1.52c.77-.52 1.53-1.04 2.3-1.57.12.16.24.31.36.47-.79.51-1.57 1.03-2.35 1.54-.1-.14-.21-.29-.31-.44zm1.28 2.61c-.12-.15-.25-.29-.37-.44.64-.39 1.27-.78 1.91-1.17-.51.53-1.03 1.07-1.54 1.61zm1.38 1.33c.01-.02.02-.04.04-.06-.01.14-.02.24 0 0-.03.03-.03.04-.04.06zm4.58-7.46c-.51-.33-.84-.54-1.28-.82.22-.12.32-.21.44-.23.61-.09 1.15-.08.84 1.05z"/>
    <g stroke-width="10.5">
      <path stroke="#BABABA" d="M265.77 340.39l-25.4 25.4-15.4-15.4"/>
      <path stroke="#FFF" d="M265.77 341.89l-25.4 25.4-15.4-15.4"/>
    </g>
    <g>
      <g transform="translate(240 544)">
        <use stroke="#FFF" stroke-width="4.5" xlink:href="#a"/>
        <use stroke="#979797" xlink:href="#a"/>
      </g>
      <path stroke="#8CC938" stroke-width="4.5" d="M259 544l-11.828 12-7.172-7.276"/>
    </g>
    <g stroke-width="4">
      <path stroke="#BABABA" d="M136.07 358.46l13.6-13.6 13.6 13.6"/>
      <path stroke="#FAFBFC" d="M136.07 359.46l13.6-13.6 13.6 13.6"/>
    </g>
    <g stroke-width="4">
      <path stroke="#BABABA" d="M62.47 343.54l-13.6 13.6-13.6-13.6"/>
      <path stroke="#FFF" d="M62.47 344.54l-13.6 13.6-13.6-13.6"/>
    </g>
    <g>
      <path fill="#3F444F" d="M440.59 276.16c-13.84 0-25.11-11.26-25.11-25.11v-2.11c0-13.84 11.26-25.11 25.11-25.11h118.82c13.84 0 25.11 11.26 25.11 25.11v2.11c0 13.84-11.26 25.11-25.11 25.11H440.59z"/>
      <path fill="#FFF" d="M559.41 224.84c13.31 0 24.1 10.79 24.1 24.1v2.11c0 13.31-10.79 24.1-24.1 24.1H440.59c-13.31 0-24.1-10.79-24.1-24.1v-2.11c0-13.31 10.79-24.1 24.1-24.1h118.82zm0-2.01H440.59c-14.4 0-26.11 11.71-26.11 26.11v2.11c0 14.4 11.71 26.11 26.11 26.11h118.82c14.4 0 26.11-11.71 26.11-26.11v-2.11c0-14.39-11.72-26.11-26.11-26.11z"/>
      <path fill="#FFF" d="M501.63 272.32h-61.09c-11.81 0-21.39-9.58-21.39-21.39v-1.87c0-11.81 9.58-21.39 21.39-21.39h57.72"/>
      <g fill="#5C6C7D">
        <path d="M442.05 253.42v-1.96c.02-.84.39-1.26 1.1-1.26.71 0 1.07.47 1.07 1.41 0 2.23-.28 3.78-.85 4.65-.77 1.19-2.04 1.78-3.8 1.78-1.62 0-2.78-.52-3.47-1.56-.51-.76-.76-2.04-.76-3.86v-7.35c0-.43-.2-.64-.59-.64h-1c-.33 0-.61-.11-.83-.32a1.05 1.05 0 0 1-.33-.78c0-.29.11-.54.32-.77.21-.23.45-.34.72-.34h1.19c.35 0 .52-.19.52-.58v-3.15c0-.78.4-1.16 1.2-1.16.74 0 1.1.39 1.1 1.16v3.28c0 .3.18.46.55.46h3.34c.78 0 1.16.36 1.16 1.07 0 .76-.42 1.13-1.26 1.13h-3.37c-.29 0-.43.21-.43.64v7.53c0 2.14.71 3.21 2.14 3.21 1.47.01 2.22-.86 2.28-2.59zM450.75 248.76v3.98c0 1.02.01 1.62.03 1.81.1.92.38 1.38.83 1.38.1 0 .36-.04.77-.13.1-.03.25-.05.46-.05.78 0 1.16.33 1.16 1 0 .28-.13.52-.38.72-.26.2-.58.3-.97.3-.33 0-.83-.05-1.49-.14-.67-.09-1.16-.14-1.49-.14-.53 0-1.13.04-1.78.12-.8.1-1.33.15-1.6.15-.82 0-1.23-.34-1.23-1.03 0-.66.35-1 1.05-1 .16 0 .41.03.73.08s.56.07.73.07c.49 0 .79-.65.9-1.96v-7.83c-.1-1.29-.41-1.93-.93-1.93-.17 0-.4.04-.7.11-.3.07-.52.11-.67.11-.74 0-1.11-.33-1.11-.98 0-.69.45-1.04 1.35-1.04.39 0 .66.01.83.03.65.08 1.07.12 1.26.12.16 0 .41-.03.75-.08s.59-.08.75-.08c.59 0 .89.4.89 1.2 0 .08-.01.2-.03.37-.02.17-.02.29-.02.37-.02.16-.03.8-.05 1.9-.03.84-.04 1.7-.04 2.57zm-1.59-8.02c-.47 0-.87-.17-1.21-.5-.34-.34-.51-.74-.51-1.21s.17-.87.51-1.2c.34-.33.74-.49 1.21-.49s.87.16 1.21.49c.34.33.51.73.51 1.2s-.17.87-.51 1.21c-.34.33-.74.5-1.21.5zM459.97 243.27v.88c1.23-1.55 2.86-2.33 4.9-2.33 1.1 0 2.14.28 3.12.84.98.56 1.64 1.26 1.99 2.1.29.69.43 1.6.43 2.73v5.82c0 .88.01 1.4.03 1.56.1.69.38 1.04.83 1.04.18 0 .42-.02.72-.07.29-.05.5-.08.63-.08.27 0 .49.09.69.28.19.19.29.41.29.67 0 .3-.12.56-.37.77-.25.2-.54.3-.89.3-.29 0-.76-.04-1.41-.12-.65-.08-1.27-.12-1.84-.12-.53 0-.97.02-1.32.06-1.02.12-1.56.18-1.62.18-.82 0-1.23-.36-1.23-1.07 0-.63.35-.95 1.06-.95.17 0 .35.02.56.06.4.08.65.12.75.12.5 0 .77-.56.81-1.69v-5.76c0-1.08-.05-1.83-.15-2.23-.18-.78-.58-1.38-1.19-1.81-.67-.47-1.43-.7-2.29-.7-1.63 0-2.8.58-3.51 1.74-.49.8-.73 2.15-.73 4.07v4.07c0 .9.06 1.51.18 1.84.12.33.35.49.67.49.16 0 .39-.04.67-.11.29-.07.52-.11.71-.11.63 0 .95.34.95 1.03 0 .66-.41 1-1.22 1-.16 0-.7-.06-1.59-.18-.45-.06-.95-.09-1.5-.09-.43 0-1 .04-1.71.12-.9.1-1.41.15-1.53.15-.86 0-1.29-.35-1.29-1.04 0-.65.33-.98 1-.98.1 0 .3.03.58.09.28.06.56.09.83.09.62 0 .95-.59.97-1.78v-8.17c-.04-.69-.13-1.17-.27-1.42-.13-.25-.37-.38-.7-.38-.15 0-.36.03-.64.09s-.49.09-.64.09c-.75 0-1.12-.33-1.12-.99 0-.68.46-1.03 1.38-1.03.12 0 .22.01.31.03l1.13.12c.33 0 .61-.03.86-.08.53-.05.81-.08.83-.08.58 0 .88.31.88.94z"/>
        <path d="M478.99 245.27l3.52 10.35 3.74-10.2c.1-.29.15-.51.15-.67 0-.35-.24-.52-.7-.52-.25 0-.44.02-.58.06-.33.04-.54.06-.64.06-.67 0-1.01-.32-1.01-.98 0-.69.44-1.04 1.32-1.04.12 0 .33.02.61.06l1.1.15c.29.04.59.06.92.06.35 0 .86-.05 1.53-.14.67-.09 1.18-.13 1.53-.13.88 0 1.32.34 1.32 1.03 0 .66-.34.99-1.01.99-.2 0-.36-.02-.46-.06a3.08 3.08 0 0 0-.55-.09c-.39 0-.79.52-1.2 1.56l-4.17 10.41c-.92 2.31-1.79 3.98-2.6 5.02-1.39 1.78-3.12 2.67-5.21 2.67-1.25 0-2.29-.32-3.14-.95-.85-.63-1.27-1.4-1.27-2.3 0-.63.18-1.15.55-1.54.37-.4.85-.6 1.44-.6.47 0 .86.14 1.16.41.31.27.46.62.46 1.02 0 .65-.3 1.07-.89 1.26.31.45.89.67 1.75.67 1.08 0 2.06-.4 2.92-1.21.87-.81 1.3-1.71 1.3-2.71 0-.51-.28-1.46-.83-2.85l-3.37-8.51-.37-.98c-.35-.92-.75-1.38-1.19-1.38-.12 0-.34.03-.66.08s-.53.07-.63.07c-.71 0-1.07-.32-1.07-.98 0-.69.47-1.04 1.41-1.04.31 0 .54.01.71.03l1.22.18h.25c.14.02.26.03.37.03.74 0 1.52-.05 2.36-.14.63-.07 1.05-.1 1.26-.1.86 0 1.29.34 1.29 1.01 0 .67-.39 1.01-1.16 1.01-.12 0-.32-.02-.58-.06-.27-.04-.46-.06-.58-.06-.29 0-.43.14-.43.43-.02.17.03.38.11.62z"/>
      </g>
      <g fill="#FFF">
        <path d="M515.64 260.08c0 .43-.18.83-.55 1.19.55.41 1.12.61 1.69.61 1.15 0 1.98-.34 2.48-1.01.5-.67.76-1.75.76-3.24l.03-9.62c0-1.79-.05-2.9-.15-3.32-.1-.42-.38-.63-.84-.63-.23 0-.51.04-.87.12-.19.06-.37.09-.56.09-.66 0-.99-.33-.99-.98 0-.67.43-1.01 1.29-1.01.3 0 .57.01.79.03.65.06 1.11.09 1.38.09.16 0 .42-.03.76-.08.35-.05.6-.08.77-.08.59 0 .89.33.89.98 0 .1-.01.31-.03.61-.02.37-.03.67-.03.89-.02.33-.05 1.06-.09 2.21-.04 1.29-.06 2.28-.06 2.97v6.92c0 1.22-.05 2.13-.15 2.72-.18.96-.55 1.78-1.1 2.45-.98 1.18-2.35 1.78-4.1 1.78-1.22 0-2.25-.3-3.06-.92-.82-.61-1.23-1.38-1.23-2.3 0-.51.15-.93.44-1.27.3-.34.67-.51 1.12-.51.39 0 .72.13 1 .38.27.28.41.58.41.93zm5.14-19.42c-.47 0-.87-.17-1.21-.5-.34-.34-.51-.74-.51-1.21s.17-.87.51-1.19c.34-.33.74-.49 1.21-.49s.88.17 1.22.5c.35.34.52.73.52 1.18 0 .47-.17.87-.52 1.21-.34.33-.75.5-1.22.5zM531.77 243.14v.98c1.14-1.59 2.71-2.39 4.69-2.39 2.04 0 3.66.7 4.87 2.11s1.81 3.32 1.81 5.73c0 2.59-.64 4.66-1.91 6.2-1.28 1.54-2.99 2.31-5.13 2.31-1.78 0-3.22-.62-4.32-1.87v2.54c0 .78.02 1.28.06 1.5.12.63.42.95.89.95.14 0 .36-.03.64-.09.29-.06.5-.09.64-.09.65 0 .98.33.98 1.01 0 .67-.43 1.01-1.28 1.01-.31 0-.76-.04-1.37-.12-.45-.06-1.12-.09-2.01-.09-.49 0-.9.02-1.22.06-.81.1-1.35.15-1.62.15-.35 0-.64-.11-.88-.32-.24-.21-.37-.46-.37-.74 0-.64.34-.96 1.03-.96.12 0 .31.02.58.08.34.07.6.11.76.11.38 0 .62-.2.71-.6.09-.4.15-1.51.17-3.32v-11.82c-.02-.94-.28-1.41-.79-1.41-.14 0-.36.04-.65.11-.29.07-.52.11-.68.11-.75 0-1.12-.34-1.12-1.01 0-.65.45-.98 1.35-.98.23 0 .47.01.74.03.51.04.89.06 1.13.06.18 0 .45-.02.8-.05.35-.03.6-.04.77-.04.47-.01.73.28.73.85zm.45 3.74c-.18.79-.29 1.77-.3 2.91 0 .08-.01.23-.03.46v.43c0 1.37.11 2.36.34 2.98.23.62.67 1.18 1.33 1.67s1.49.73 2.46.73c1.47 0 2.61-.54 3.41-1.61.81-1.07 1.21-2.6 1.21-4.58 0-4.08-1.45-6.12-4.35-6.12-.98 0-1.85.29-2.62.89-.76.59-1.24 1.34-1.45 2.24zM553.39 241.73c.53 0 1.13.08 1.81.24.1-2 1.27-3 3.49-3 .94 0 1.72.24 2.36.73.63.49.95 1.11.95 1.87 0 .49-.16.91-.48 1.25-.32.35-.69.52-1.12.52-.33 0-.61-.11-.86-.34-.25-.22-.37-.49-.37-.79 0-.33.22-.66.67-1.01-.33-.41-.75-.61-1.25-.61-1.08 0-1.63.67-1.65 2.02 1.55 1.04 2.33 2.44 2.33 4.19 0 1.41-.53 2.58-1.6 3.52-1.06.94-2.4 1.41-3.99 1.41-1.13 0-2.29-.27-3.5-.79-.33-.14-.6-.22-.83-.22-.29 0-.54.13-.77.38-.22.26-.34.55-.34.9 0 1.06 1.08 1.59 3.22 1.59h1.1c1.94 0 3.52.18 4.73.55 1.12.35 2.02.88 2.67 1.62.66.73.98 1.56.98 2.47 0 1.49-.69 2.66-2.07 3.53-1.38.87-3.24 1.3-5.59 1.3-2.35 0-4.19-.41-5.53-1.22-1.34-.81-2.01-1.94-2.01-3.37 0-1.65.93-2.83 2.79-3.52-1.67-.65-2.51-1.63-2.51-2.94 0-1.43.84-2.41 2.51-2.94-.53-.71-.8-1.55-.8-2.51 0-1.39.54-2.54 1.61-3.46 1.1-.91 2.44-1.37 4.05-1.37zm.13 13.9c-1.63 0-2.92.25-3.86.74s-1.41 1.15-1.41 1.99c0 .84.46 1.5 1.38 1.98.92.48 2.15.72 3.71.72 1.63 0 2.92-.25 3.87-.74.95-.49 1.42-1.14 1.42-1.96 0-.86-.45-1.53-1.35-2.01-.89-.47-2.15-.72-3.76-.72zm-.03-11.88c-.9 0-1.66.27-2.3.79-.63.53-.98 1.2-1.04 1.99v.19c0 .9.31 1.62.92 2.17.61.55 1.41.83 2.39.83 1.02 0 1.85-.28 2.5-.83.64-.55.96-1.26.96-2.11 0-.88-.33-1.6-.98-2.18-.66-.56-1.47-.85-2.45-.85z"/>
      </g>
    </g>
    <g>
      <path fill="#3F444F" d="M243.4 274.58c-13.19 0-23.92-10.58-23.92-23.59v-1.98c0-13.01 10.73-23.59 23.92-23.59h113.21c13.19 0 23.92 10.58 23.92 23.59v1.98c0 13.01-10.73 23.59-23.92 23.59H243.4z"/>
      <path fill="#FFF" d="M301.56 271.4h-58.57c-11.32 0-20.5-9.18-20.5-20.51v-1.79c0-11.32 9.18-20.5 20.5-20.5h55.34"/>
      <g fill="#5C6C7D">
        <path d="M244.44 253.28v-1.88c.02-.8.37-1.2 1.06-1.2.69 0 1.03.45 1.03 1.35 0 2.13-.27 3.62-.82 4.46-.74 1.14-1.95 1.7-3.64 1.7-1.56 0-2.66-.5-3.32-1.5-.49-.73-.73-1.96-.73-3.7v-7.05c0-.41-.19-.62-.57-.62h-.96c-.32 0-.59-.1-.8-.31a1.03 1.03 0 0 1-.01-1.48c.21-.22.44-.32.69-.32h1.15c.33 0 .5-.19.5-.56v-3.02c0-.74.38-1.12 1.15-1.12.7 0 1.06.37 1.06 1.12v3.14c0 .29.18.44.53.44h3.2c.74 0 1.12.34 1.12 1.03 0 .73-.4 1.09-1.2 1.09h-3.23c-.27 0-.41.21-.41.62v7.22c0 2.06.68 3.08 2.05 3.08 1.37 0 2.1-.83 2.15-2.49zM252.78 248.81v3.82c0 .98.01 1.56.03 1.73.1.88.36 1.32.79 1.32.1 0 .34-.04.73-.13.1-.03.25-.05.44-.05.74 0 1.12.32 1.12.96 0 .27-.12.5-.37.69-.25.19-.56.29-.93.29-.31 0-.79-.04-1.43-.13-.64-.09-1.12-.13-1.43-.13-.51 0-1.08.04-1.71.12-.77.1-1.28.15-1.53.15-.79 0-1.18-.33-1.18-.98 0-.64.33-.96 1.01-.96.16 0 .39.03.7.08.31.05.54.07.7.07.47 0 .76-.62.86-1.88v-7.51c-.1-1.23-.4-1.85-.89-1.85-.16 0-.38.04-.67.1-.29.07-.5.1-.64.1-.71 0-1.07-.31-1.07-.94 0-.66.43-1 1.29-1 .37 0 .64.01.79.03.63.08 1.03.12 1.2.12.16 0 .4-.02.72-.07.32-.05.56-.07.72-.07.57 0 .85.38.85 1.15 0 .08-.01.2-.02.35-.02.16-.02.28-.02.35-.02.16-.03.77-.05 1.82 0 .79-.01 1.61-.01 2.45zm-1.52-7.69c-.45 0-.84-.16-1.16-.48-.32-.32-.48-.71-.48-1.16 0-.45.16-.83.48-1.15.32-.31.71-.47 1.16-.47.45 0 .84.16 1.16.47.32.31.48.7.48 1.15 0 .45-.16.84-.48 1.16-.33.32-.71.48-1.16.48zM261.62 243.54v.84c1.17-1.49 2.74-2.23 4.7-2.23 1.06 0 2.06.27 2.99.81.94.54 1.58 1.21 1.91 2.01.27.67.41 1.54.41 2.61v5.58c0 .84.01 1.34.03 1.5.1.67.36 1 .79 1a4 4 0 0 0 .69-.07c.28-.05.48-.08.6-.08.25 0 .47.09.66.26.19.18.28.39.28.65 0 .29-.12.54-.35.74-.24.19-.52.29-.85.29-.27 0-.72-.04-1.35-.12-.63-.08-1.21-.12-1.76-.12-.51 0-.93.02-1.26.06-.98.12-1.5.18-1.56.18-.78 0-1.17-.34-1.17-1.03 0-.6.34-.91 1.02-.91.16 0 .34.02.54.06.38.08.62.12.72.12.48 0 .74-.54.78-1.62v-5.52c0-1.04-.05-1.75-.15-2.14-.18-.74-.56-1.32-1.14-1.73-.64-.45-1.38-.67-2.19-.67-1.56 0-2.68.56-3.36 1.67-.47.76-.7 2.07-.7 3.91v3.9c0 .86.06 1.45.18 1.76.12.31.33.47.65.47.16 0 .37-.04.65-.1.27-.07.5-.1.68-.1.61 0 .91.33.91.98 0 .64-.39.96-1.17.96-.16 0-.67-.06-1.53-.18-.43-.06-.91-.09-1.44-.09-.41 0-.96.04-1.64.12-.86.1-1.35.15-1.47.15-.82 0-1.23-.33-1.23-1 0-.63.32-.94.96-.94.1 0 .28.03.55.09s.53.09.79.09c.6 0 .91-.57.93-1.7v-7.84c-.04-.67-.12-1.12-.25-1.37-.13-.24-.35-.37-.67-.37-.14 0-.34.03-.61.09-.27.06-.47.09-.61.09-.72 0-1.08-.32-1.08-.95 0-.66.44-.98 1.32-.98.12 0 .21.01.29.03l1.09.12c.31 0 .59-.03.82-.07.51-.05.77-.07.79-.07.53-.03.81.27.81.86z"/>
        <path d="M279.85 245.47l3.38 9.92 3.58-9.78c.1-.28.15-.49.15-.65 0-.33-.22-.5-.67-.5-.23 0-.42.02-.56.06-.31.04-.52.06-.62.06-.65 0-.97-.31-.97-.94 0-.66.42-1 1.26-1 .12 0 .31.02.59.06l1.06.15c.27.04.57.06.88.06.33 0 .82-.04 1.47-.13s1.13-.13 1.47-.13c.84 0 1.26.33 1.26.98 0 .64-.32.95-.97.95-.2 0-.34-.02-.44-.06a2.7 2.7 0 0 0-.53-.09c-.37 0-.75.5-1.15 1.5l-3.99 9.98c-.88 2.21-1.71 3.82-2.5 4.81-1.33 1.7-3 2.56-4.99 2.56-1.19 0-2.2-.31-3.01-.91-.81-.61-1.22-1.34-1.22-2.2 0-.61.18-1.1.53-1.48.35-.38.81-.57 1.38-.57.45 0 .82.13 1.12.4.29.26.44.59.44.98 0 .63-.29 1.03-.85 1.2.29.43.85.65 1.67.65 1.04 0 1.97-.39 2.8-1.16.83-.77 1.25-1.64 1.25-2.6 0-.49-.26-1.4-.79-2.73l-3.23-8.16-.35-.94c-.33-.88-.71-1.32-1.15-1.32-.12 0-.33.03-.63.07-.3.05-.5.07-.6.07-.69 0-1.03-.31-1.03-.94 0-.66.45-1 1.35-1 .29 0 .52.01.68.03l1.17.17h.24c.14.02.25.03.35.03.7 0 1.46-.04 2.26-.14.61-.07 1.01-.1 1.2-.1.82 0 1.23.32 1.23.97 0 .65-.37.97-1.12.97-.12 0-.3-.02-.56-.06-.25-.04-.44-.06-.56-.06-.27 0-.41.14-.41.41.02.18.06.37.13.61z"/>
      </g>
      <g fill="#FFF">
        <path d="M314.99 259.66c0 .41-.18.79-.53 1.14.53.39 1.07.59 1.62.59 1.1 0 1.9-.32 2.38-.97.48-.64.72-1.68.72-3.11l.03-9.22c0-1.72-.05-2.78-.15-3.19-.1-.4-.37-.6-.8-.6-.22 0-.49.04-.83.12-.18.06-.36.09-.53.09-.63 0-.95-.31-.95-.94 0-.64.41-.97 1.23-.97.29 0 .55.01.76.03.63.06 1.07.09 1.32.09.16 0 .4-.03.73-.07.33-.05.58-.07.73-.07.57 0 .85.31.85.94 0 .1-.01.3-.03.59-.02.35-.03.64-.03.85-.02.31-.05 1.02-.09 2.11-.04 1.23-.06 2.18-.06 2.85v6.64c0 1.17-.05 2.05-.15 2.61-.18.92-.53 1.7-1.06 2.35-.94 1.13-2.25 1.7-3.94 1.7-1.17 0-2.15-.29-2.94-.88-.78-.59-1.17-1.32-1.17-2.2 0-.49.14-.89.43-1.22.28-.32.64-.49 1.07-.49.37 0 .69.12.96.37.3.24.43.53.43.86zm4.93-18.62c-.45 0-.84-.16-1.16-.48-.32-.32-.48-.71-.48-1.16 0-.45.16-.83.48-1.14.32-.31.71-.47 1.16-.47.45 0 .84.16 1.17.48.33.32.5.7.5 1.13 0 .45-.17.84-.5 1.16-.33.32-.72.48-1.17.48zM330.46 243.42v.94c1.1-1.53 2.59-2.29 4.49-2.29 1.96 0 3.51.67 4.67 2.03 1.15 1.35 1.73 3.18 1.73 5.49 0 2.49-.61 4.47-1.83 5.95-1.22 1.48-2.86 2.22-4.92 2.22-1.7 0-3.08-.6-4.14-1.79v2.44c0 .74.02 1.22.06 1.44.12.6.4.91.85.91.14 0 .34-.03.62-.09.27-.06.48-.09.62-.09.63 0 .94.32.94.97 0 .65-.41.97-1.23.97-.29 0-.73-.04-1.32-.12-.43-.06-1.07-.09-1.93-.09-.47 0-.86.02-1.17.06-.78.1-1.3.15-1.55.15-.33 0-.62-.1-.85-.3-.23-.2-.35-.44-.35-.71 0-.62.33-.92.99-.92.12 0 .3.02.55.08.33.07.57.1.73.1.37 0 .6-.19.68-.57.09-.38.14-1.45.16-3.19v-11.33c-.02-.9-.27-1.35-.76-1.35-.13 0-.34.03-.62.1-.28.07-.5.1-.65.1-.72 0-1.08-.32-1.08-.97 0-.62.43-.94 1.29-.94.22 0 .45.01.71.03.49.04.85.06 1.09.06.18 0 .43-.01.76-.04s.58-.04.73-.04c.48-.03.73.25.73.79zm.44 3.59c-.17.76-.27 1.69-.29 2.79 0 .08-.01.22-.03.44v.41c0 1.31.11 2.27.32 2.86.22.6.64 1.13 1.28 1.6.64.47 1.42.71 2.36.71 1.41 0 2.5-.51 3.27-1.54s1.16-2.49 1.16-4.39c0-3.92-1.39-5.87-4.17-5.87-.94 0-1.78.28-2.51.85-.73.56-1.2 1.27-1.39 2.14zM351.19 242.07c.51 0 1.09.08 1.73.23.1-1.92 1.21-2.88 3.35-2.88.9 0 1.65.24 2.26.71.61.47.91 1.07.91 1.79 0 .47-.15.87-.46 1.2-.3.33-.66.5-1.07.5-.31 0-.59-.11-.82-.32-.24-.22-.35-.47-.35-.76 0-.31.21-.63.65-.97-.31-.39-.72-.59-1.2-.59-1.04 0-1.57.65-1.59 1.94 1.49 1 2.23 2.34 2.23 4.02 0 1.35-.51 2.48-1.53 3.38-1.02.9-2.3 1.35-3.83 1.35-1.08 0-2.2-.25-3.36-.76-.31-.14-.58-.21-.79-.21-.27 0-.52.12-.74.37-.21.25-.32.53-.32.87 0 1.02 1.03 1.53 3.09 1.53h1.06c1.86 0 3.38.18 4.53.53 1.08.33 1.93.85 2.56 1.55.63.7.94 1.49.94 2.37 0 1.42-.66 2.55-1.98 3.38-1.32.83-3.11 1.24-5.36 1.24-2.25 0-4.02-.39-5.3-1.17-1.28-.78-1.92-1.86-1.92-3.23 0-1.58.89-2.71 2.67-3.38-1.6-.63-2.41-1.57-2.41-2.82 0-1.37.8-2.31 2.41-2.82-.51-.69-.76-1.49-.76-2.41 0-1.33.51-2.44 1.54-3.32 1.03-.88 2.32-1.32 3.86-1.32zm.12 13.33c-1.57 0-2.8.24-3.7.71-.9.47-1.35 1.11-1.35 1.91 0 .8.44 1.43 1.32 1.89.88.46 2.06.69 3.55.69 1.57 0 2.8-.24 3.71-.71.91-.47 1.37-1.1 1.37-1.88 0-.82-.43-1.46-1.29-1.92-.86-.46-2.06-.69-3.61-.69zm-.03-11.39c-.86 0-1.6.25-2.2.76-.61.51-.94 1.15-1 1.91v.18c0 .86.29 1.56.88 2.08.59.53 1.35.79 2.29.79.98 0 1.78-.26 2.39-.79.62-.53.93-1.2.93-2.03 0-.84-.31-1.54-.94-2.09-.63-.53-1.41-.81-2.35-.81z"/>
      </g>
    </g>
    <path fill="#40444F" d="M123.04 276.55c-1.17 0-2.25-.62-2.83-1.64a3.29 3.29 0 0 1 0-3.27l26.96-46.56a3.259 3.259 0 0 1 2.83-1.63c1.17 0 2.24.62 2.83 1.63l26.96 46.56c.58 1.01.59 2.26 0 3.27a3.268 3.268 0 0 1-2.83 1.64h-53.92zm5.67-6.54L150 233.24l21.29 36.77h-42.58zm24.27-11.32l1.52-13.58h-8.53l1.53 13.58h5.48zm-2.74 9c1.06 0 1.96-.38 2.71-1.13.74-.75 1.11-1.66 1.11-2.73 0-1.09-.37-2.01-1.11-2.76-.75-.74-1.65-1.12-2.71-1.12-1.08 0-1.99.38-2.72 1.14-.73.76-1.1 1.68-1.1 2.75s.37 1.98 1.11 2.73c.75.75 1.65 1.12 2.71 1.12z"/>
    <g>
      <path fill="#FFBD6D" d="M60.44 256.04c.29.51.29 1.12-.01 1.63-.29.5-.83.81-1.41.81H41.63c-.58 0-1.12-.31-1.41-.81a1.66 1.66 0 0 1-.01-1.63l8.7-15.22c.29-.51.83-.82 1.42-.82.58 0 1.13.32 1.42.82l8.69 15.22"/>
      <path fill="#654F2C" d="M49.06 244.89h2.54v2.71l-.49 4.84h-1.57l-.48-4.84v-2.71zm.21 8.82h2.13v2.33h-2.13v-2.33z"/>
    </g>
    <g>
      <path fill="#3F444F" d="M440.59 176.16c-13.84 0-25.11-11.26-25.11-25.11v-2.11c0-13.84 11.26-25.11 25.11-25.11h118.82c13.84 0 25.11 11.26 25.11 25.11v2.11c0 13.84-11.26 25.11-25.11 25.11H440.59z"/>
      <path fill="#FFF" d="M559.41 124.84c13.31 0 24.1 10.79 24.1 24.1v2.11c0 13.31-10.79 24.1-24.1 24.1H440.59c-13.31 0-24.1-10.79-24.1-24.1v-2.11c0-13.31 10.79-24.1 24.1-24.1h118.82zm0-2.01H440.59c-14.4 0-26.11 11.71-26.11 26.11v2.11c0 14.4 11.71 26.11 26.11 26.11h118.82c14.4 0 26.11-11.71 26.11-26.11v-2.11c0-14.39-11.72-26.11-26.11-26.11z"/>
      <path fill="#FFF" d="M501.63 172.32h-61.09c-11.81 0-21.39-9.58-21.39-21.39v-1.87c0-11.81 9.58-21.39 21.39-21.39h57.72"/>
      <g fill="#5C6C7D">
        <path d="M442.05 153.42v-1.96c.02-.84.39-1.26 1.1-1.26.71 0 1.07.47 1.07 1.41 0 2.23-.28 3.78-.85 4.66-.77 1.19-2.04 1.78-3.8 1.78-1.62 0-2.78-.52-3.47-1.56-.51-.76-.76-2.04-.76-3.86v-7.35c0-.43-.2-.64-.59-.64h-1c-.33 0-.61-.11-.83-.32-.22-.21-.33-.47-.33-.78 0-.29.11-.54.32-.77.21-.23.45-.34.72-.34h1.19c.35 0 .52-.19.52-.58v-3.15c0-.78.4-1.17 1.2-1.17.74 0 1.1.39 1.1 1.17v3.28c0 .31.18.46.55.46h3.34c.78 0 1.16.36 1.16 1.07 0 .76-.42 1.13-1.26 1.13h-3.37c-.29 0-.43.21-.43.64v7.53c0 2.14.71 3.21 2.14 3.21 1.47 0 2.22-.87 2.28-2.6zM450.75 148.76v3.98c0 1.02.01 1.62.03 1.81.1.92.38 1.38.83 1.38.1 0 .36-.04.77-.13.1-.03.25-.05.46-.05.78 0 1.16.33 1.16 1 0 .28-.13.52-.38.72-.26.2-.58.3-.97.3-.33 0-.83-.05-1.49-.14-.67-.09-1.16-.14-1.49-.14-.53 0-1.13.04-1.78.12-.8.1-1.33.15-1.6.15-.82 0-1.23-.34-1.23-1.03 0-.66.35-1 1.05-1 .16 0 .41.03.73.08s.56.08.73.08c.49 0 .79-.65.9-1.96v-7.83c-.1-1.29-.41-1.93-.93-1.93-.17 0-.4.04-.7.11-.3.07-.52.11-.67.11-.74 0-1.11-.33-1.11-.98 0-.69.45-1.04 1.35-1.04.39 0 .66.01.83.03.65.08 1.07.12 1.26.12.16 0 .41-.02.75-.08.34-.05.59-.08.75-.08.59 0 .89.4.89 1.2 0 .08-.01.2-.03.37-.02.16-.02.29-.02.37-.02.16-.03.8-.05 1.9-.03.83-.04 1.69-.04 2.56zm-1.59-8.02c-.47 0-.87-.17-1.21-.5-.34-.34-.51-.74-.51-1.21s.17-.87.51-1.19c.34-.33.74-.49 1.21-.49s.87.16 1.21.49c.34.33.51.73.51 1.19 0 .47-.17.87-.51 1.21-.34.33-.74.5-1.21.5zM459.97 143.27v.87c1.23-1.55 2.86-2.33 4.9-2.33 1.1 0 2.14.28 3.12.84.98.56 1.64 1.26 1.99 2.1.29.69.43 1.6.43 2.73v5.82c0 .88.01 1.4.03 1.56.1.69.38 1.04.83 1.04.18 0 .42-.03.72-.08.29-.05.5-.08.63-.08.27 0 .49.09.69.28.19.19.29.41.29.67 0 .31-.12.56-.37.77-.25.2-.54.31-.89.31-.29 0-.76-.04-1.41-.12-.65-.08-1.27-.12-1.84-.12-.53 0-.97.02-1.32.06-1.02.12-1.56.18-1.62.18-.82 0-1.23-.36-1.23-1.07 0-.63.35-.95 1.06-.95.17 0 .35.02.56.06.4.08.65.12.75.12.5 0 .77-.56.81-1.69v-5.76c0-1.08-.05-1.83-.15-2.23-.18-.78-.58-1.38-1.19-1.81-.67-.47-1.43-.7-2.29-.7-1.63 0-2.8.58-3.51 1.75-.49.8-.73 2.15-.73 4.07v4.07c0 .9.06 1.51.18 1.84.12.33.35.49.67.49.16 0 .39-.04.67-.11.29-.07.52-.11.71-.11.63 0 .95.34.95 1.03 0 .66-.41 1-1.22 1-.16 0-.7-.06-1.59-.18-.45-.06-.95-.09-1.5-.09-.43 0-1 .04-1.71.12-.9.1-1.41.15-1.53.15-.86 0-1.29-.35-1.29-1.04 0-.65.33-.98 1-.98.1 0 .3.03.58.09.28.06.56.09.83.09.62 0 .95-.59.97-1.78v-8.18c-.04-.69-.13-1.17-.27-1.42-.13-.25-.37-.38-.7-.38-.15 0-.36.03-.64.09s-.49.09-.64.09c-.75 0-1.12-.33-1.12-.99 0-.68.46-1.03 1.38-1.03.12 0 .22.01.31.03l1.13.12c.33 0 .61-.03.86-.08.53-.05.81-.08.83-.08.58.01.88.32.88.95z"/>
        <path d="M478.99 145.27l3.52 10.35 3.74-10.2c.1-.29.15-.51.15-.67 0-.35-.24-.52-.7-.52-.25 0-.44.02-.58.06-.33.04-.54.06-.64.06-.67 0-1.01-.33-1.01-.98 0-.69.44-1.04 1.32-1.04.12 0 .33.02.61.06l1.1.15c.29.04.59.06.92.06.35 0 .86-.05 1.53-.14.67-.09 1.18-.14 1.53-.14.88 0 1.32.34 1.32 1.03 0 .66-.34.99-1.01.99-.2 0-.36-.02-.46-.06a3.08 3.08 0 0 0-.55-.09c-.39 0-.79.52-1.2 1.56l-4.17 10.41c-.92 2.31-1.79 3.98-2.6 5.02-1.39 1.78-3.12 2.66-5.21 2.66-1.25 0-2.29-.32-3.14-.95-.85-.63-1.27-1.4-1.27-2.3 0-.63.18-1.15.55-1.55.37-.4.85-.6 1.44-.6.47 0 .86.14 1.16.41.31.28.46.62.46 1.02 0 .66-.3 1.07-.89 1.26.31.45.89.67 1.75.67 1.08 0 2.06-.4 2.92-1.21.87-.81 1.3-1.71 1.3-2.71 0-.51-.28-1.46-.83-2.85l-3.37-8.51-.37-.98c-.35-.92-.75-1.38-1.19-1.38-.12 0-.34.03-.66.08s-.53.08-.63.08c-.71 0-1.07-.33-1.07-.98 0-.69.47-1.04 1.41-1.04.31 0 .54.01.71.04l1.22.18h.25c.14.02.26.03.37.03.74 0 1.52-.05 2.36-.14.63-.07 1.05-.1 1.26-.1.86 0 1.29.34 1.29 1.01 0 .67-.39 1.01-1.16 1.01-.12 0-.32-.02-.58-.06-.27-.04-.46-.06-.58-.06-.29 0-.43.14-.43.43-.02.18.03.39.11.63z"/>
      </g>
      <g fill="#FFF">
        <path d="M516.31 143.14v.98c1.14-1.59 2.7-2.39 4.68-2.39 2.04 0 3.66.7 4.87 2.11 1.2 1.41 1.8 3.32 1.8 5.72 0 2.59-.64 4.66-1.91 6.2s-2.98 2.31-5.12 2.31c-1.78 0-3.22-.62-4.32-1.87v2.54c0 .78.02 1.28.06 1.5.12.63.42.95.89.95.14 0 .35-.03.64-.09.29-.06.5-.09.64-.09.65 0 .98.33.98 1.01 0 .67-.43 1.01-1.28 1.01-.31 0-.76-.04-1.37-.12-.45-.06-1.12-.09-2.01-.09-.49 0-.9.02-1.22.06-.81.1-1.35.15-1.61.15-.35 0-.65-.11-.89-.32-.24-.21-.36-.46-.36-.74 0-.64.34-.96 1.03-.96.12 0 .31.03.58.08.34.07.6.1.76.1.39 0 .62-.2.71-.6.09-.4.15-1.5.17-3.32v-11.81c-.02-.94-.28-1.41-.79-1.41-.14 0-.36.03-.65.11-.29.07-.52.11-.68.11-.75 0-1.12-.34-1.12-1.01 0-.65.45-.98 1.35-.98.22 0 .47.01.73.03.51.04.89.06 1.13.06.19 0 .45-.02.8-.05.34-.03.6-.05.76-.05.5.02.75.3.75.87m.46 3.74c-.18.8-.28 1.77-.31 2.91 0 .08-.01.23-.03.46v.43c0 1.37.11 2.36.34 2.98.23.62.67 1.18 1.34 1.67.66.49 1.49.73 2.47.73 1.47 0 2.61-.54 3.42-1.61s1.21-2.6 1.21-4.57c0-4.08-1.45-6.12-4.36-6.12-.98 0-1.86.3-2.63.89-.76.58-1.25 1.33-1.45 2.23M533.75 143.19v.87c1.22-1.55 2.86-2.33 4.9-2.33 1.1 0 2.14.28 3.12.84.98.56 1.64 1.26 1.99 2.1.29.69.43 1.6.43 2.73v5.82c0 .88.01 1.4.03 1.56.1.69.38 1.04.83 1.04.18 0 .42-.02.72-.08.3-.05.51-.08.63-.08.27 0 .49.09.69.28.19.19.29.41.29.67 0 .31-.12.56-.37.77-.24.2-.54.31-.89.31-.29 0-.75-.04-1.41-.12-.65-.08-1.26-.12-1.83-.12-.53 0-.97.02-1.32.06-1.02.12-1.56.18-1.62.18-.82 0-1.23-.36-1.23-1.07 0-.63.35-.95 1.06-.95.17 0 .35.02.56.06.39.08.64.12.75.12.5 0 .77-.56.81-1.69v-5.75c0-1.08-.05-1.83-.15-2.23-.18-.78-.58-1.38-1.19-1.81-.67-.47-1.43-.7-2.28-.7-1.63 0-2.8.58-3.51 1.74-.49.8-.73 2.15-.73 4.07v4.07c0 .9.06 1.51.18 1.84.12.33.35.49.68.49.16 0 .39-.04.67-.11.29-.07.52-.11.7-.11.63 0 .95.34.95 1.03 0 .66-.41 1-1.22 1-.16 0-.69-.06-1.59-.18-.45-.06-.95-.09-1.5-.09-.43 0-1 .04-1.72.12-.9.1-1.4.15-1.53.15-.86 0-1.28-.35-1.28-1.04 0-.65.33-.98 1-.98.1 0 .3.03.58.09.28.06.56.09.83.09.62 0 .94-.59.97-1.78v-8.17c-.04-.69-.13-1.17-.27-1.42s-.37-.38-.7-.38c-.15 0-.36.03-.64.09s-.49.09-.64.09c-.75 0-1.12-.33-1.12-.99 0-.68.46-1.03 1.38-1.03.12 0 .23.01.31.03l1.13.12c.33 0 .61-.03.86-.08.53-.05.8-.08.83-.08.57.01.86.32.86.94M556.07 141.74c.53 0 1.13.08 1.8.25.1-2 1.27-3 3.49-3 .94 0 1.72.25 2.36.73.63.49.95 1.11.95 1.87 0 .49-.16.91-.47 1.25-.32.35-.69.52-1.12.52-.33 0-.61-.11-.86-.34a1.06 1.06 0 0 1-.37-.8c0-.33.22-.66.67-1.01-.33-.41-.75-.61-1.26-.61-1.08 0-1.63.67-1.65 2.02 1.55 1.04 2.33 2.44 2.33 4.2 0 1.41-.53 2.58-1.6 3.52s-2.4 1.41-4 1.41c-1.13 0-2.3-.27-3.51-.79-.33-.14-.6-.21-.83-.21-.29 0-.55.13-.77.38-.23.25-.34.56-.34.9 0 1.06 1.08 1.59 3.23 1.59H555.23c1.95 0 3.52.19 4.74.55 1.12.34 2.02.88 2.67 1.61.66.74.99 1.56.99 2.47 0 1.49-.69 2.66-2.06 3.52-1.38.86-3.24 1.3-5.59 1.3-2.35 0-4.19-.41-5.52-1.22-1.34-.82-2.01-1.94-2.01-3.37 0-1.65.93-2.83 2.78-3.52-1.69-.65-2.54-1.63-2.54-2.94 0-1.43.84-2.41 2.54-2.94-.53-.71-.8-1.55-.8-2.51 0-1.39.54-2.54 1.61-3.46 1.07-.92 2.41-1.37 4.03-1.37m.1 13.89c-1.64 0-2.93.25-3.87.74s-1.41 1.15-1.41 1.99c0 .84.46 1.49 1.38 1.97.92.48 2.16.72 3.72.72 1.64 0 2.93-.25 3.88-.73.95-.49 1.43-1.14 1.43-1.96 0-.86-.45-1.53-1.35-2-.9-.49-2.16-.73-3.78-.73m-.01-11.88c-.9 0-1.66.27-2.3.8-.63.53-.98 1.2-1.04 1.99v.18c0 .9.31 1.62.92 2.17.61.55 1.41.82 2.39.82 1.02 0 1.85-.27 2.5-.82.64-.55.96-1.26.96-2.11 0-.88-.33-1.6-.98-2.17-.66-.57-1.47-.86-2.45-.86"/>
      </g>
    </g>
    <g>
      <path fill="#3F444F" d="M243.4 174.58c-13.19 0-23.92-10.58-23.92-23.59V149c0-13.01 10.73-23.59 23.92-23.59h113.21c13.19 0 23.92 10.58 23.92 23.59v1.99c0 13.01-10.73 23.59-23.92 23.59H243.4z"/>
      <path fill="#FFF" d="M301.56 171.4h-58.57c-11.32 0-20.5-9.18-20.5-20.51v-1.79c0-11.32 9.18-20.5 20.5-20.5h55.34"/>
      <g fill="#5C6C7D">
        <path d="M244.44 153.28v-1.88c.02-.8.37-1.2 1.06-1.2.69 0 1.03.45 1.03 1.35 0 2.13-.27 3.62-.82 4.46-.74 1.14-1.95 1.7-3.64 1.7-1.56 0-2.66-.5-3.32-1.5-.49-.73-.73-1.96-.73-3.7v-7.05c0-.41-.19-.62-.57-.62h-.96c-.32 0-.59-.1-.8-.31a1.03 1.03 0 0 1-.01-1.48c.21-.22.44-.32.69-.32h1.15c.33 0 .5-.19.5-.56v-3.02c0-.74.38-1.12 1.15-1.12.7 0 1.06.37 1.06 1.12v3.14c0 .29.18.44.53.44h3.2c.74 0 1.12.34 1.12 1.03 0 .73-.4 1.09-1.2 1.09h-3.23c-.27 0-.41.21-.41.62v7.22c0 2.06.68 3.08 2.05 3.08 1.37 0 2.1-.83 2.15-2.49zM252.78 148.81v3.82c0 .98.01 1.56.03 1.73.1.88.36 1.32.79 1.32.1 0 .34-.04.73-.13.1-.03.25-.05.44-.05.74 0 1.12.32 1.12.96 0 .27-.12.5-.37.69-.25.19-.56.29-.93.29-.31 0-.79-.04-1.43-.13-.64-.09-1.12-.13-1.43-.13-.51 0-1.08.04-1.71.12-.77.1-1.28.15-1.53.15-.79 0-1.18-.33-1.18-.98 0-.64.33-.96 1.01-.96.16 0 .39.03.7.08.31.05.54.07.7.07.47 0 .76-.62.86-1.88v-7.51c-.1-1.23-.4-1.85-.89-1.85-.16 0-.38.04-.67.1-.29.07-.5.1-.64.1-.71 0-1.07-.31-1.07-.94 0-.66.43-1 1.29-1 .37 0 .64.01.79.03.63.08 1.03.12 1.2.12.16 0 .4-.02.72-.07.32-.05.56-.07.72-.07.57 0 .85.38.85 1.15 0 .08-.01.2-.02.35-.02.16-.02.28-.02.35-.02.16-.03.77-.05 1.82 0 .79-.01 1.61-.01 2.45zm-1.52-7.69c-.45 0-.84-.16-1.16-.48-.32-.32-.48-.71-.48-1.16 0-.45.16-.83.48-1.15.32-.31.71-.47 1.16-.47.45 0 .84.16 1.16.47.32.31.48.7.48 1.15 0 .45-.16.84-.48 1.16-.33.32-.71.48-1.16.48zM261.62 143.54v.84c1.17-1.49 2.74-2.23 4.7-2.23 1.06 0 2.06.27 2.99.81.94.54 1.58 1.21 1.91 2.01.27.67.41 1.54.41 2.61v5.58c0 .84.01 1.34.03 1.5.1.66.36 1 .79 1a4 4 0 0 0 .69-.07c.28-.05.48-.08.6-.08.25 0 .47.09.66.26.19.18.28.39.28.65 0 .29-.12.54-.35.74-.24.19-.52.29-.85.29-.27 0-.72-.04-1.35-.12-.63-.08-1.21-.12-1.76-.12-.51 0-.93.02-1.26.06-.98.12-1.5.18-1.56.18-.78 0-1.17-.34-1.17-1.03 0-.6.34-.91 1.02-.91.16 0 .34.02.54.06.38.08.62.12.72.12.48 0 .74-.54.78-1.62v-5.52c0-1.04-.05-1.75-.15-2.14-.18-.74-.56-1.32-1.14-1.73-.64-.45-1.38-.67-2.19-.67-1.56 0-2.68.56-3.36 1.67-.47.76-.7 2.07-.7 3.91v3.9c0 .86.06 1.45.18 1.76.12.31.33.47.65.47.16 0 .37-.04.65-.1.27-.07.5-.1.68-.1.61 0 .91.33.91.98 0 .64-.39.96-1.17.96-.16 0-.67-.06-1.53-.18-.43-.06-.91-.09-1.44-.09-.41 0-.96.04-1.64.12-.86.1-1.35.15-1.47.15-.82 0-1.23-.33-1.23-1 0-.63.32-.94.96-.94.1 0 .28.03.55.09s.53.09.79.09c.6 0 .91-.57.93-1.7v-7.84c-.04-.67-.12-1.12-.25-1.37-.13-.24-.35-.37-.67-.37-.14 0-.34.03-.61.09-.27.06-.47.09-.61.09-.72 0-1.08-.32-1.08-.95 0-.66.44-.98 1.32-.98.12 0 .21.01.29.03l1.09.12c.31 0 .59-.03.82-.07.51-.05.77-.07.79-.07.53-.03.81.27.81.86z"/>
        <path d="M279.85 145.47l3.38 9.92 3.58-9.78c.1-.28.15-.49.15-.65 0-.33-.22-.5-.67-.5-.23 0-.42.02-.56.06-.31.04-.52.06-.62.06-.65 0-.97-.31-.97-.94 0-.66.42-1 1.26-1 .12 0 .31.02.59.06l1.06.15c.27.04.57.06.88.06.33 0 .82-.04 1.47-.13s1.13-.13 1.47-.13c.84 0 1.26.33 1.26.98 0 .64-.32.95-.97.95-.2 0-.34-.02-.44-.06a2.7 2.7 0 0 0-.53-.09c-.37 0-.75.5-1.15 1.5l-3.99 9.98c-.88 2.21-1.71 3.82-2.5 4.81-1.33 1.7-3 2.56-4.99 2.56-1.19 0-2.2-.31-3.01-.91-.81-.61-1.22-1.34-1.22-2.2 0-.61.18-1.1.53-1.48.35-.38.81-.57 1.38-.57.45 0 .82.13 1.12.4.29.26.44.59.44.98 0 .63-.29 1.03-.85 1.2.29.43.85.65 1.67.65 1.04 0 1.97-.39 2.8-1.16.83-.77 1.25-1.64 1.25-2.6 0-.49-.26-1.4-.79-2.73l-3.23-8.16-.35-.94c-.33-.88-.71-1.32-1.15-1.32-.12 0-.33.03-.63.07-.3.05-.5.07-.6.07-.69 0-1.03-.31-1.03-.94 0-.66.45-1 1.35-1 .29 0 .52.01.68.03l1.17.17h.24c.14.02.25.03.35.03.7 0 1.46-.04 2.26-.14.61-.07 1.01-.1 1.2-.1.82 0 1.23.32 1.23.97 0 .65-.37.97-1.12.97-.12 0-.3-.02-.56-.06-.25-.04-.44-.06-.56-.06-.27 0-.41.14-.41.41.02.18.06.37.13.61z"/>
      </g>
      <g fill="#FFF">
        <path d="M315.83 143.33v.95c1.11-1.54 2.62-2.32 4.55-2.32 1.98 0 3.56.68 4.73 2.05 1.17 1.37 1.75 3.22 1.75 5.56 0 2.52-.62 4.52-1.86 6.02-1.24 1.5-2.9 2.25-4.98 2.25-1.72 0-3.12-.61-4.19-1.81v2.47c0 .75.02 1.24.06 1.46.12.61.41.92.86.92.14 0 .34-.03.62-.09.28-.06.48-.09.62-.09.63 0 .95.33.95.98 0 .65-.42.98-1.24.98-.3 0-.74-.04-1.33-.12-.44-.06-1.09-.09-1.96-.09-.47 0-.87.02-1.19.06-.79.1-1.31.15-1.57.15-.34 0-.63-.1-.86-.31-.23-.21-.35-.45-.35-.72 0-.62.33-.94 1-.94.12 0 .3.03.56.08.33.07.58.1.73.1.37 0 .6-.19.69-.58.09-.39.14-1.46.16-3.22V145.6c-.02-.91-.27-1.37-.77-1.37-.14 0-.35.03-.63.1-.29.07-.5.1-.66.1-.73 0-1.09-.33-1.09-.98 0-.63.43-.95 1.31-.95.22 0 .46.01.71.03.5.04.86.06 1.1.06.18 0 .44-.02.77-.04.33-.03.58-.04.74-.04.52-.01.77.27.77.82m.45 3.63c-.18.77-.28 1.71-.3 2.82 0 .08-.01.23-.03.44v.42c0 1.33.11 2.29.33 2.9.22.6.65 1.14 1.3 1.62.64.47 1.44.71 2.4.71 1.43 0 2.54-.52 3.32-1.56.79-1.04 1.18-2.52 1.18-4.44 0-3.96-1.41-5.95-4.23-5.95-.95 0-1.8.29-2.55.86-.75.58-1.22 1.31-1.42 2.18M332.77 143.38v.85c1.19-1.5 2.77-2.26 4.75-2.26 1.07 0 2.08.27 3.03.82.95.55 1.6 1.22 1.93 2.04.28.67.42 1.56.42 2.65v5.65c0 .85.01 1.36.03 1.51.1.67.37 1.01.8 1.01a4 4 0 0 0 .69-.07c.29-.05.49-.07.61-.07.26 0 .48.09.67.27.19.18.28.4.28.65 0 .3-.12.55-.36.75-.24.2-.53.3-.86.3-.28 0-.73-.04-1.37-.12-.63-.08-1.23-.12-1.78-.12-.52 0-.94.02-1.28.06-.99.12-1.51.18-1.57.18-.79 0-1.19-.35-1.19-1.04 0-.61.34-.92 1.03-.92.16 0 .34.02.54.06.38.08.63.12.73.12.48 0 .75-.54.79-1.64v-5.59c0-1.05-.05-1.77-.15-2.17-.18-.75-.56-1.34-1.16-1.75a3.81 3.81 0 0 0-2.22-.68c-1.58 0-2.71.56-3.4 1.69-.47.77-.71 2.09-.71 3.95v3.95c0 .87.06 1.47.18 1.78.12.32.34.48.66.48.16 0 .38-.04.65-.11.28-.07.51-.1.68-.1.62 0 .92.33.92 1 0 .64-.4.97-1.19.97-.16 0-.67-.06-1.54-.18-.44-.06-.92-.09-1.46-.09-.42 0-.97.04-1.67.12-.87.1-1.36.15-1.48.15-.83 0-1.25-.34-1.25-1.01 0-.63.32-.95.97-.95.1 0 .29.03.56.09.27.06.54.09.8.09.6 0 .92-.58.94-1.72v-7.93c-.04-.67-.13-1.13-.26-1.38s-.36-.37-.68-.37c-.14 0-.35.03-.62.09s-.48.09-.62.09c-.73 0-1.09-.32-1.09-.96 0-.66.45-1 1.33-1 .12 0 .22.01.3.03l1.1.12c.32 0 .6-.03.84-.07.51-.05.78-.07.8-.07.59-.06.88.24.88.85M354.43 141.97c.51 0 1.1.08 1.75.24.1-1.94 1.23-2.91 3.39-2.91.91 0 1.67.24 2.29.71.61.48.92 1.08.92 1.81 0 .47-.15.88-.46 1.22-.31.34-.67.51-1.08.51-.32 0-.59-.11-.83-.33a.995.995 0 0 1-.35-.77c0-.32.22-.64.65-.98-.32-.4-.73-.59-1.22-.59-1.05 0-1.58.65-1.6 1.96 1.5 1.01 2.26 2.37 2.26 4.07 0 1.37-.52 2.5-1.55 3.42-1.04.91-2.33 1.37-3.89 1.37-1.1 0-2.23-.26-3.41-.77-.32-.14-.59-.21-.8-.21-.28 0-.53.12-.75.37-.22.25-.33.54-.33.88 0 1.03 1.05 1.54 3.13 1.54h1.08c1.89 0 3.42.18 4.6.53 1.09.34 1.96.86 2.6 1.57.64.71.96 1.51.96 2.4 0 1.44-.67 2.58-2 3.42-1.34.84-3.15 1.26-5.42 1.26-2.28 0-4.07-.4-5.36-1.19-1.3-.79-1.95-1.88-1.95-3.27 0-1.6.9-2.74 2.7-3.42-1.65-.63-2.47-1.58-2.47-2.85 0-1.39.82-2.34 2.47-2.85-.52-.69-.77-1.5-.77-2.44 0-1.35.52-2.47 1.56-3.36 1.01-.9 2.31-1.34 3.88-1.34m.1 13.49c-1.59 0-2.84.24-3.76.71-.91.48-1.37 1.12-1.37 1.93 0 .81.45 1.45 1.34 1.92.9.47 2.1.7 3.61.7 1.59 0 2.85-.24 3.77-.71.92-.48 1.38-1.11 1.38-1.9 0-.83-.44-1.48-1.31-1.95-.87-.47-2.09-.7-3.66-.7m-.01-11.53c-.87 0-1.61.26-2.23.77-.61.52-.95 1.16-1.01 1.93v.18c0 .87.3 1.58.89 2.11.59.53 1.37.8 2.32.8.99 0 1.8-.27 2.42-.8.62-.54.93-1.22.93-2.05 0-.85-.31-1.56-.95-2.11-.63-.55-1.42-.83-2.37-.83"/>
      </g>
    </g>
    <g>
      <path fill="url(#b)" stroke="#AFAFAF" stroke-width=".2" d="M18.83 1.04v10.98c0 .79-.78.79-.78.79H.79s-.78 0-.78-.79V1.04C.01.25.79.25.79.25h17.26s.78 0 .78.79z" transform="translate(141 145)"/>
      <path fill="url(#c)" d="M18.61 8.59l-6.84-6.84C10.2.18 8.63.18 7.06 1.75L.22 8.59c.23.22.56.22.56.22h17.26c.01 0 .34-.01.57-.22z" transform="translate(141 149)"/>
      <path stroke="#AFAEAE" stroke-width=".2" d="M159.61 157.59l-6.84-6.84c-1.57-1.57-3.14-1.57-4.71 0l-6.84 6.84c.23.22.56.22.56.22h17.26c.01 0 .34-.01.57-.22z"/>
      <path fill="#9E9D9D" d="M141.2 145.5c1.05 1.25 6.16 7.33 6.86 8.17 1.57 1.87 3.14 1.87 4.71 0 .7-.84 5.81-6.91 6.86-8.17-.23-.24-.58-.24-.58-.24h-17.26c-.01-.01-.35 0-.59.24z" opacity=".34"/>
      <g>
        <path fill="url(#d)" d="M.22.47l6.84 6.84c1.57 1.57 3.14 1.57 4.71 0L18.61.47c-.23-.22-.56-.22-.56-.22H.79C.78.25.45.26.22.47z" transform="translate(141 145)"/>
        <path stroke="#AFAFAF" stroke-width=".2" d="M141.22 145.47l6.84 6.84c1.57 1.57 3.14 1.57 4.71 0l6.84-6.84c-.23-.22-.56-.22-.56-.22h-17.26c-.01 0-.34.01-.57.22z"/>
      </g>
    </g>
    <path fill="#40444F" fill-rule="nonzero" d="M43.849 140.166V133h10.799v7.166h9l-14.4 14.329-14.398-14.33h8.999zM27.711 163.32h43.076v-17.98a3.348 3.348 0 0 1 3.356-3.34 3.348 3.348 0 0 1 3.355 3.34v21.32A3.348 3.348 0 0 1 74.143 170H24.356A3.348 3.348 0 0 1 21 166.66v-21.32a3.348 3.348 0 0 1 3.356-3.34 3.348 3.348 0 0 1 3.355 3.34v17.981zm2.529-5.162v-1.432h38.016v1.432H30.24zm0 2.866v-1.432h38.016v1.432H30.24z"/>
    <g>
      <path fill="#3F444F" d="M453.59 76.16c-13.84 0-25.11-11.26-25.11-25.11v-2.11c0-13.84 11.26-25.11 25.11-25.11h92.82c13.84 0 25.11 11.26 25.11 25.11v2.11c0 13.84-11.26 25.11-25.11 25.11h-92.82z"/>
      <path fill="#FFF" d="M546.41 24.84c13.31 0 24.1 10.79 24.1 24.1v2.11c0 13.31-10.79 24.1-24.1 24.1h-92.82c-13.31 0-24.1-10.79-24.1-24.1v-2.11c0-13.31 10.79-24.1 24.1-24.1h92.82zm0-2.01h-92.82c-14.4 0-26.11 11.71-26.11 26.11v2.11c0 14.4 11.71 26.11 26.11 26.11h92.82c14.4 0 26.11-11.71 26.11-26.11v-2.11c0-14.39-11.72-26.11-26.11-26.11z"/>
      <path fill="#FFF" d="M514.43 27.68h-61.07c-11.77 0-21.21 9.66-21.21 21.43v1.87c0 11.77 9.44 21.36 21.21 21.36h61.07c11.77 0 21.26-9.59 21.26-21.36V49.1c0-11.77-9.49-21.42-21.26-21.42"/>
      <g fill="#5C6C7D">
        <path d="M454.67 54.24v-1.88c.02-.8.37-1.2 1.06-1.2.69 0 1.03.45 1.03 1.35 0 2.13-.27 3.62-.82 4.46-.74 1.13-1.95 1.7-3.64 1.7-1.56 0-2.66-.5-3.33-1.5-.49-.72-.73-1.96-.73-3.7v-7.05c0-.41-.19-.62-.57-.62h-.96c-.32 0-.59-.1-.8-.31a1.02 1.02 0 0 1-.31-.75c0-.27.1-.52.31-.73.21-.22.44-.32.69-.32h1.15c.33 0 .5-.19.5-.56v-3.02c0-.74.38-1.12 1.15-1.12.7 0 1.06.37 1.06 1.12v3.14c0 .29.18.44.53.44h3.2c.74 0 1.12.34 1.12 1.03 0 .72-.4 1.09-1.2 1.09h-3.23c-.27 0-.41.21-.41.62v7.22c0 2.05.68 3.08 2.06 3.08 1.35.01 2.08-.83 2.14-2.49M463 49.78v3.82c0 .98.01 1.56.03 1.73.1.88.36 1.32.79 1.32.1 0 .34-.05.73-.15.1-.04.24-.06.44-.06.74 0 1.12.32 1.12.97 0 .27-.12.51-.37.7-.25.2-.55.29-.93.29-.31 0-.79-.04-1.43-.13-.64-.09-1.12-.13-1.43-.13-.51 0-1.08.04-1.71.12-.77.1-1.28.15-1.53.15-.79 0-1.18-.33-1.18-1 0-.65.34-.97 1.01-.97.16 0 .39.03.7.09.31.06.54.09.7.09.47 0 .76-.62.86-1.88v-7.51c-.1-1.23-.39-1.85-.89-1.85-.16 0-.38.03-.67.1-.29.07-.5.1-.64.1-.71 0-1.07-.31-1.07-.94 0-.67.43-1 1.29-1 .37 0 .63.01.79.03.63.08 1.03.12 1.2.12.16 0 .4-.03.72-.07.32-.05.56-.07.72-.07.57 0 .85.38.85 1.14 0 .08-.01.2-.02.35-.02.16-.02.27-.02.35-.02.16-.03.76-.05 1.82 0 .8-.01 1.62-.01 2.47m-1.52-7.7c-.45 0-.84-.16-1.16-.48-.32-.32-.48-.71-.48-1.16 0-.45.16-.83.48-1.14.32-.31.71-.47 1.16-.47.45 0 .84.16 1.16.47.32.31.48.69.48 1.14 0 .45-.16.84-.48 1.16-.33.32-.71.48-1.16.48M471.84 44.5v.84c1.17-1.49 2.74-2.23 4.7-2.23 1.06 0 2.05.27 3 .81.94.54 1.58 1.21 1.91 2.01.27.67.41 1.54.41 2.61v5.58c0 .84.01 1.34.03 1.5.1.67.36 1 .79 1a4 4 0 0 0 .69-.07c.28-.05.48-.07.6-.07.25 0 .47.09.66.27.19.18.28.39.28.64 0 .29-.12.54-.35.73-.23.2-.52.29-.85.29-.27 0-.72-.04-1.35-.12-.63-.08-1.21-.12-1.76-.12-.51 0-.93.02-1.26.06-.98.12-1.5.18-1.56.18-.78 0-1.17-.34-1.17-1.03 0-.61.34-.91 1.02-.91.16 0 .34.02.54.06.38.08.62.12.72.12.48 0 .74-.54.78-1.62v-5.52c0-1.04-.05-1.75-.15-2.14-.18-.74-.56-1.32-1.14-1.73-.64-.45-1.38-.67-2.19-.67-1.56 0-2.68.56-3.36 1.67-.47.76-.7 2.07-.7 3.91v3.91c0 .86.06 1.45.18 1.76.12.31.33.47.65.47.16 0 .37-.03.65-.1.27-.07.5-.1.67-.1.61 0 .91.33.91.98 0 .64-.39.95-1.17.95-.16 0-.67-.06-1.53-.18-.43-.06-.91-.09-1.44-.09-.41 0-.96.04-1.64.12-.86.1-1.35.15-1.47.15-.82 0-1.23-.33-1.23-1 0-.63.32-.94.96-.94.1 0 .28.03.55.09s.54.09.79.09c.6 0 .91-.57.93-1.7V47.1c-.04-.67-.12-1.12-.25-1.37-.13-.24-.35-.37-.67-.37-.14 0-.34.02-.61.07-.27.05-.47.07-.61.07-.72 0-1.08-.31-1.08-.94 0-.65.44-.97 1.32-.97.12 0 .22.01.29.03l1.09.12c.31 0 .59-.03.82-.07.51-.05.77-.07.79-.07.53.01.81.31.81.9M490.81 49.78v3.82c0 .98.01 1.56.03 1.73.1.88.36 1.32.79 1.32.1 0 .34-.05.73-.15.1-.04.24-.06.44-.06.74 0 1.12.32 1.12.97 0 .27-.12.51-.37.7-.24.2-.55.29-.93.29-.31 0-.79-.04-1.43-.13-.64-.09-1.12-.13-1.43-.13-.51 0-1.08.04-1.71.12-.77.1-1.28.15-1.53.15-.79 0-1.18-.33-1.18-1 0-.65.34-.97 1.01-.97.16 0 .39.03.7.09.3.06.54.09.7.09.47 0 .76-.62.86-1.88v-7.51c-.1-1.23-.39-1.85-.89-1.85-.16 0-.38.03-.67.1-.29.07-.5.1-.64.1-.71 0-1.07-.31-1.07-.94 0-.67.43-1 1.29-1 .37 0 .64.01.79.03.63.08 1.03.12 1.2.12.16 0 .4-.03.72-.07.32-.05.56-.07.72-.07.57 0 .85.38.85 1.14 0 .08-.01.2-.02.35-.02.16-.02.27-.02.35-.02.16-.03.76-.05 1.82 0 .8-.01 1.62-.01 2.47m-1.52-7.7c-.45 0-.84-.16-1.16-.48-.32-.32-.48-.71-.48-1.16 0-.45.16-.83.48-1.14.32-.31.71-.47 1.16-.47.45 0 .84.16 1.16.47.32.31.48.69.48 1.14 0 .45-.16.84-.48 1.16-.33.32-.71.48-1.16.48M503.85 40.94c0-.27.1-.52.29-.73-.33-.31-.82-.47-1.47-.47-.84 0-1.5.27-1.98.81s-.72 1.29-.72 2.25v.53c0 .26.13.38.38.38h2.29c.65 0 .97.35.97 1.06 0 .71-.32 1.06-.97 1.06h-2.17c-.33 0-.5.18-.5.53v8.22c0 .72.01 1.14.03 1.26.1.53.34.79.73.79.1 0 .34-.05.73-.15.27-.04.47-.06.59-.06.67 0 1 .32 1 .97 0 .69-.4 1.03-1.2 1.03-.33 0-.84-.04-1.51-.12-.68-.08-1.18-.12-1.51-.12-.59 0-1.12.03-1.59.09-.76.1-1.25.15-1.47.15-.84 0-1.26-.34-1.26-1.03 0-.25.1-.48.31-.67.21-.2.45-.29.72-.29.19 0 .42.04.66.1.25.07.46.1.66.1.37 0 .61-.23.7-.7.1-.47.16-1.6.18-3.41v-6.17c0-.35-.17-.53-.52-.53h-1.45c-.68 0-1.02-.36-1.02-1.09 0-.69.35-1.03 1.06-1.03h1.67c.25 0 .38-.13.38-.38v-.53c0-1.55.41-2.73 1.23-3.55.82-.82 1.99-1.23 3.49-1.23 1.23 0 2.22.25 2.97.75.74.5 1.12 1.17 1.12 2.01 0 .43-.14.78-.41 1.04-.27.26-.62.4-1.03.4-.39 0-.72-.12-.98-.37-.27-.25-.4-.55-.4-.9"/>
        <path d="M509.96 46.43l3.38 9.93 3.58-9.78c.1-.27.15-.49.15-.65 0-.33-.23-.5-.67-.5-.24 0-.42.02-.56.06-.31.04-.52.06-.62.06-.65 0-.97-.31-.97-.94 0-.67.42-1 1.26-1 .12 0 .31.02.59.06l1.06.15c.27.04.57.06.88.06.33 0 .82-.04 1.47-.13s1.14-.13 1.47-.13c.84 0 1.26.33 1.26.98 0 .64-.32.95-.97.95-.2 0-.34-.02-.44-.06a2.7 2.7 0 0 0-.53-.09c-.37 0-.75.5-1.14 1.5l-3.99 9.98c-.88 2.21-1.71 3.82-2.5 4.82-1.33 1.7-2.99 2.55-4.99 2.55-1.2 0-2.2-.3-3.01-.91-.81-.61-1.22-1.34-1.22-2.2 0-.61.18-1.1.53-1.48.35-.38.81-.57 1.38-.57.45 0 .82.13 1.12.4.29.26.44.59.44.98 0 .63-.28 1.03-.85 1.2.29.43.85.65 1.67.65 1.04 0 1.97-.39 2.8-1.16.83-.77 1.25-1.64 1.25-2.6 0-.49-.26-1.4-.79-2.73l-3.23-8.16-.35-.94c-.33-.88-.72-1.32-1.15-1.32-.12 0-.33.02-.63.07s-.5.07-.6.07c-.68 0-1.03-.31-1.03-.94 0-.67.45-1 1.35-1 .29 0 .52.01.67.03l1.17.17h.24c.14.02.25.03.35.03.71 0 1.46-.04 2.26-.13.61-.07 1.01-.1 1.2-.1.82 0 1.23.32 1.23.97 0 .65-.37.97-1.12.97-.12 0-.3-.02-.56-.06-.25-.04-.44-.06-.56-.06-.27 0-.41.14-.41.41.01.16.05.35.13.59"/>
      </g>
    </g>
    <g>
      <path fill="#3F444F" d="M256.37 74.58c-13.17 0-23.89-10.58-23.89-23.59V49c0-13.01 10.72-23.59 23.89-23.59h87.27c13.17 0 23.89 10.58 23.89 23.59v1.99c0 13.01-10.72 23.59-23.89 23.59h-87.27z"/>
      <path fill="#FFF" d="M314.37 28.6h-58.56c-11.28 0-20.33 9.26-20.33 20.54v1.79c0 11.28 9.05 20.47 20.33 20.47H314.36c11.28 0 20.38-9.19 20.38-20.47v-1.79c.01-11.28-9.09-20.54-20.37-20.54"/>
      <g fill="#5C6C7D">
        <path d="M257.45 54.24v-1.88c.02-.8.37-1.2 1.06-1.2.68 0 1.03.45 1.03 1.35 0 2.13-.27 3.62-.82 4.46-.74 1.13-1.95 1.7-3.65 1.7-1.56 0-2.66-.5-3.33-1.5-.49-.72-.73-1.96-.73-3.7v-7.05c0-.41-.19-.62-.57-.62h-.96c-.32 0-.59-.1-.8-.31a1.02 1.02 0 0 1-.31-.75c0-.27.1-.52.31-.73.21-.22.44-.32.69-.32h1.15c.33 0 .5-.19.5-.56v-3.02c0-.74.38-1.12 1.15-1.12.7 0 1.06.37 1.06 1.12v3.14c0 .29.18.44.53.44h3.2c.74 0 1.12.34 1.12 1.03 0 .72-.4 1.09-1.2 1.09h-3.23c-.27 0-.41.21-.41.62v7.22c0 2.05.69 3.08 2.06 3.08 1.36.01 2.09-.83 2.15-2.49M265.79 49.78v3.82c0 .98.01 1.56.03 1.73.1.88.36 1.32.79 1.32.1 0 .34-.05.73-.15.1-.04.24-.06.44-.06.74 0 1.12.32 1.12.97 0 .27-.12.51-.37.7-.25.2-.55.29-.93.29-.31 0-.79-.04-1.43-.13-.64-.09-1.11-.13-1.43-.13-.51 0-1.08.04-1.71.12-.77.1-1.28.15-1.53.15-.79 0-1.18-.33-1.18-1 0-.65.34-.97 1.01-.97.16 0 .39.03.7.09.31.06.54.09.7.09.47 0 .76-.62.86-1.88v-7.51c-.1-1.23-.4-1.85-.89-1.85-.16 0-.38.03-.67.1-.29.07-.5.1-.64.1-.71 0-1.07-.31-1.07-.94 0-.67.43-1 1.29-1 .37 0 .64.01.79.03.63.08 1.03.12 1.2.12.16 0 .4-.03.72-.07.32-.05.56-.07.72-.07.57 0 .85.38.85 1.14 0 .08-.01.2-.02.35-.02.16-.02.27-.02.35-.02.16-.03.76-.05 1.82-.01.8-.01 1.62-.01 2.47m-1.53-7.7c-.45 0-.84-.16-1.16-.48-.32-.32-.48-.71-.48-1.16 0-.45.16-.83.48-1.14.32-.31.71-.47 1.16-.47.45 0 .84.16 1.16.47.32.31.48.69.48 1.14 0 .45-.16.84-.48 1.16-.32.32-.71.48-1.16.48M274.62 44.5v.84c1.17-1.49 2.74-2.23 4.7-2.23 1.06 0 2.05.27 3 .81.94.54 1.58 1.21 1.91 2.01.27.67.41 1.54.41 2.61v5.58c0 .84.01 1.34.03 1.5.1.67.36 1 .79 1a4 4 0 0 0 .69-.07c.28-.05.48-.07.6-.07.25 0 .47.09.66.27.19.18.28.39.28.64 0 .29-.12.54-.35.73-.23.2-.52.29-.85.29-.27 0-.72-.04-1.35-.12-.63-.08-1.21-.12-1.76-.12-.51 0-.93.02-1.26.06-.98.12-1.5.18-1.56.18-.78 0-1.17-.34-1.17-1.03 0-.61.34-.91 1.02-.91.16 0 .34.02.54.06.38.08.62.12.72.12.48 0 .74-.54.78-1.62v-5.52c0-1.04-.05-1.75-.15-2.14-.18-.74-.56-1.32-1.14-1.73-.64-.45-1.38-.67-2.19-.67-1.56 0-2.68.56-3.36 1.67-.47.76-.7 2.07-.7 3.91v3.91c0 .86.06 1.45.18 1.76.12.31.33.47.65.47.16 0 .37-.03.65-.1.27-.07.5-.1.67-.1.61 0 .91.33.91.98 0 .64-.39.95-1.17.95-.16 0-.67-.06-1.53-.18-.43-.06-.91-.09-1.44-.09-.41 0-.96.04-1.64.12-.86.1-1.35.15-1.47.15-.82 0-1.23-.33-1.23-1 0-.63.32-.94.96-.94.1 0 .28.03.55.09s.53.09.79.09c.6 0 .91-.57.93-1.7V47.1c-.04-.67-.12-1.12-.25-1.37-.13-.24-.35-.37-.67-.37-.14 0-.34.02-.61.07-.27.05-.47.07-.61.07-.72 0-1.08-.31-1.08-.94 0-.65.44-.97 1.32-.97.12 0 .22.01.29.03l1.09.12c.31 0 .59-.03.82-.07.51-.05.77-.07.79-.07.53.01.81.31.81.9M293.59 49.78v3.82c0 .98.01 1.56.03 1.73.1.88.36 1.32.79 1.32.1 0 .34-.05.73-.15.1-.04.24-.06.44-.06.74 0 1.12.32 1.12.97 0 .27-.12.51-.37.7-.24.2-.55.29-.93.29-.31 0-.79-.04-1.43-.13-.64-.09-1.12-.13-1.43-.13-.51 0-1.08.04-1.71.12-.77.1-1.28.15-1.53.15-.79 0-1.18-.33-1.18-1 0-.65.34-.97 1.01-.97.16 0 .39.03.7.09.31.06.54.09.7.09.47 0 .76-.62.86-1.88v-7.51c-.1-1.23-.39-1.85-.89-1.85-.16 0-.38.03-.67.1-.29.07-.5.1-.64.1-.71 0-1.07-.31-1.07-.94 0-.67.43-1 1.29-1 .37 0 .64.01.79.03.63.08 1.03.12 1.2.12.16 0 .4-.03.72-.07.32-.05.56-.07.72-.07.57 0 .85.38.85 1.14 0 .08-.01.2-.02.35-.02.16-.02.27-.02.35-.02.16-.03.76-.05 1.82 0 .8-.01 1.62-.01 2.47m-1.52-7.7c-.45 0-.84-.16-1.16-.48-.32-.32-.48-.71-.48-1.16 0-.45.16-.83.48-1.14.32-.31.71-.47 1.16-.47.45 0 .84.16 1.16.47.32.31.48.69.48 1.14 0 .45-.16.84-.48 1.16-.33.32-.71.48-1.16.48M306.63 40.94c0-.27.1-.52.29-.73-.33-.31-.82-.47-1.47-.47-.84 0-1.5.27-1.98.81s-.72 1.29-.72 2.25v.53c0 .26.13.38.38.38h2.29c.65 0 .97.35.97 1.06 0 .71-.32 1.06-.97 1.06h-2.17c-.33 0-.5.18-.5.53v8.22c0 .72.01 1.14.03 1.26.1.53.34.79.73.79.1 0 .34-.05.73-.15.27-.04.47-.06.59-.06.67 0 1 .32 1 .97 0 .69-.4 1.03-1.2 1.03-.33 0-.84-.04-1.51-.12-.67-.08-1.18-.12-1.51-.12-.59 0-1.12.03-1.59.09-.76.1-1.25.15-1.47.15-.84 0-1.26-.34-1.26-1.03 0-.25.1-.48.31-.67.21-.2.45-.29.72-.29.19 0 .42.04.66.1.25.07.47.1.66.1.37 0 .61-.23.7-.7.1-.47.16-1.6.18-3.41v-6.17c0-.35-.17-.53-.52-.53h-1.45c-.68 0-1.02-.36-1.02-1.09 0-.69.35-1.03 1.06-1.03h1.67c.25 0 .38-.13.38-.38v-.53c0-1.55.41-2.73 1.23-3.55.82-.82 1.99-1.23 3.5-1.23 1.23 0 2.22.25 2.97.75.74.5 1.12 1.17 1.12 2.01 0 .43-.14.78-.41 1.04-.27.26-.62.4-1.03.4-.39 0-.72-.12-.98-.37-.27-.25-.41-.55-.41-.9"/>
        <path d="M312.74 46.43l3.38 9.93 3.58-9.78c.1-.27.15-.49.15-.65 0-.33-.23-.5-.67-.5-.24 0-.42.02-.56.06-.31.04-.52.06-.62.06-.65 0-.97-.31-.97-.94 0-.67.42-1 1.26-1 .12 0 .31.02.59.06l1.06.15c.27.04.57.06.88.06.33 0 .82-.04 1.47-.13s1.14-.13 1.47-.13c.84 0 1.26.33 1.26.98 0 .64-.32.95-.97.95-.2 0-.34-.02-.44-.06a2.7 2.7 0 0 0-.53-.09c-.37 0-.75.5-1.14 1.5l-3.99 9.98c-.88 2.21-1.71 3.82-2.5 4.82-1.33 1.7-2.99 2.55-4.99 2.55-1.2 0-2.2-.3-3.01-.91-.81-.61-1.22-1.34-1.22-2.2 0-.61.18-1.1.53-1.48.35-.38.81-.57 1.38-.57.45 0 .82.13 1.12.4.29.26.44.59.44.98 0 .63-.28 1.03-.85 1.2.29.43.85.65 1.67.65 1.04 0 1.97-.39 2.8-1.16.83-.77 1.25-1.64 1.25-2.6 0-.49-.26-1.4-.79-2.73l-3.23-8.16-.35-.94c-.33-.88-.72-1.32-1.15-1.32-.12 0-.33.02-.63.07s-.5.07-.6.07c-.69 0-1.03-.31-1.03-.94 0-.67.45-1 1.35-1 .29 0 .52.01.68.03l1.17.17h.24c.14.02.25.03.35.03.71 0 1.46-.04 2.26-.13.61-.07 1.01-.1 1.2-.1.82 0 1.23.32 1.23.97 0 .65-.37.97-1.12.97-.12 0-.3-.02-.56-.06-.25-.04-.44-.06-.56-.06-.27 0-.41.14-.41.41 0 .16.04.35.12.59"/>
      </g>
    </g>
  </g>
</svg>
